<?xml version="1.0" encoding="UTF-8" standalone="no"?>
<svg
   xmlns:osb="http://www.openswatchbook.org/uri/2009/osb"
   xmlns:dc="http://purl.org/dc/elements/1.1/"
   xmlns:cc="http://creativecommons.org/ns#"
   xmlns:rdf="http://www.w3.org/1999/02/22-rdf-syntax-ns#"
   xmlns:svg="http://www.w3.org/2000/svg"
   xmlns="http://www.w3.org/2000/svg"
   id="svg8"
   version="1.1"
   viewBox="0 0 32 32"
   height="32mm"
   width="32mm">
  <defs
     id="defs2">
    <linearGradient
       osb:paint="solid"
       id="linearGradient830">
      <stop
         id="stop828"
         offset="0"
         style="stop-color:#000000;stop-opacity:1;" />
    </linearGradient>
    <meshgradient
       gradientTransform="matrix(0.99148385,0,0,0.99148385,0.1362568,2.3930592)"
       y="259.07745"
       x="20.157469"
       gradientUnits="userSpaceOnUse"
       id="meshgradient2315">
      <meshrow
         id="meshrow12865">
        <meshpatch
           id="meshpatch12867">
          <stop
             id="stop12869"
             style="stop-color:#acaab1;stop-opacity:1"
             path="c 8.37863,-6.6142  13.0712,17.9547  18.5214,22.2061" />
          <stop
             id="stop12871"
             style="stop-color:#29197c;stop-opacity:1"
             path="c -0.0015885,10.4578  -14.9319,19.8757  -24.4744,21.8281" />
          <stop
             id="stop12873"
             style="stop-color:#54c39c;stop-opacity:1"
             path="c -8.47417,-2.07889  -17.8921,-11.3397  -20.3163,-19.3714" />
          <stop
             id="stop12875"
             style="stop-color:#800080;stop-opacity:1"
             path="c -8.22214,-21.8913  3.23276,-19.4946  26.2693,-24.6628" />
        </meshpatch>
      </meshrow>
    </meshgradient>
  </defs>
  <metadata
     id="metadata5">
    <rdf:RDF>
      <cc:Work
         rdf:about="">
        <dc:format>image/svg+xml</dc:format>
        <dc:type
           rdf:resource="http://purl.org/dc/dcmitype/StillImage" />
        <dc:title></dc:title>
      </cc:Work>
    </rdf:RDF>
  </metadata>
  <g
     transform="translate(0,-265)"
     id="layer1">
    <path
       id="path826"
       d="m 13.691418,296.44539 c -0.01164,-0.0588 -0.12058,-0.71491 -0.242168,-1.45802 -0.147678,-0.90257 -0.236568,-1.35111 -0.267749,-1.35111 -0.119362,0 -1.482883,-0.40198 -1.846896,-0.54448 -0.88742,-0.3474 -1.961137,-0.91701 -2.6913982,-1.4278 l -0.300222,-0.20999 -0.9575403,0.64399 c -0.5266475,0.3542 -0.9689294,0.64387 -0.9828486,0.64371 -0.03006,-2.9e-4 -2.530263,-2.46948 -2.8826297,-2.84678 l -0.2442015,-0.2615 0.7253375,-1.01073 c 0.3989359,-0.55593 0.734745,-1.03529 0.7462428,-1.06524 0.011497,-0.0299 -0.1184969,-0.32353 -0.2888783,-0.65237 -0.4692146,-0.90557 -0.8695864,-2.00462 -1.0959853,-3.00849 -0.048227,-0.21385 -0.092191,-0.39444 -0.097699,-0.40132 -0.011949,-0.015 -0.8802567,-0.18722 -1.903135,-0.37764 -0.40630647,-0.0756 -0.77824949,-0.14603 -0.8265408,-0.15641 l -0.0878016,-0.0188 0.0100443,-2.20358 0.0100443,-2.20357 1.4358975,-0.23781 c 1.0241962,-0.16966 1.4440312,-0.25386 1.4642657,-0.29373 0.015604,-0.0308 0.093017,-0.29209 0.1720342,-0.58076 0.3442301,-1.25766 0.9072843,-2.48161 1.6583914,-3.60492 0.1460863,-0.21848 0.2656108,-0.40947 0.2656108,-0.42441 0,-0.0265 -0.090605,-0.16131 -1.0539436,-1.56809 l -0.4649418,-0.67896 1.5466029,-1.54696 c 0.8506323,-0.85085 1.5616735,-1.54698 1.5800918,-1.54698 0.018421,0 0.5713479,0.38407 1.2287305,0.85351 l 1.1952388,0.85349 0.5712472,-0.29278 c 1.031364,-0.52859 1.868314,-0.83292 3.037083,-1.10435 0.299384,-0.0695 0.548479,-0.12954 0.553542,-0.13337 0.0078,-0.005 0.554565,-2.7357 0.554565,-2.76926 0,-0.006 0.997297,-0.0122 2.216211,-0.0122 1.218919,0 2.216215,0.006 2.216215,0.0165 0,0.0563 0.473038,2.919 0.484214,2.93018 0.0076,0.006 0.285118,0.0916 0.616729,0.18669 0.968158,0.2776 1.92281,0.69552 2.924468,1.28026 l 0.117879,0.0687 1.405945,-0.9387 c 0.773271,-0.51627 1.420166,-0.93871 1.437544,-0.93871 0.0396,0 3.083383,3.04192 3.083383,3.08149 0,0.0159 -0.426858,0.62632 -0.948572,1.35641 l -0.94857,1.32741 0.242146,0.39306 c 0.719059,1.16726 1.188424,2.29469 1.533235,3.68297 l 0.148034,0.59601 0.71588,0.14339 c 0.393734,0.079 1.026441,0.20117 1.406017,0.2718 l 0.690136,0.12838 v 2.20154 2.20153 l -1.445338,0.23999 c -0.794938,0.13199 -1.45171,0.24637 -1.459497,0.25415 -0.0077,0.009 -0.05768,0.17825 -0.110847,0.37882 -0.305622,1.15259 -0.744242,2.21926 -1.298285,3.15729 -0.107919,0.18271 -0.196216,0.34369 -0.196216,0.35772 0,0.014 0.376876,0.59346 0.837501,1.28756 l 0.8375,1.26202 -1.533275,1.53387 c -0.8433,0.8436 -1.557533,1.53386 -1.587185,1.53386 -0.05451,0 -0.913195,-0.60374 -1.839979,-1.29368 -0.277999,-0.20695 -0.514201,-0.37672 -0.524893,-0.37724 -0.01069,-5.7e-4 -0.203153,0.11364 -0.42769,0.25388 -0.551394,0.34419 -1.419661,0.77879 -2.080131,1.04116 -0.451613,0.17943 -0.807844,0.28542 -1.987013,0.59125 -0.02362,0.005 -0.171624,0.66003 -0.328872,1.45312 l -0.285901,1.44198 h -2.20503 -2.205019 z m 3.164278,-6.31065 c 1.740597,-0.15893 3.595294,-0.89118 4.821235,-1.90351 1.082065,-0.89348 1.777928,-1.70279 2.332128,-2.71231 1.519347,-2.76762 1.592946,-5.85049 0.206473,-8.64887 -0.498034,-1.0052 -0.936374,-1.61201 -1.709106,-2.36598 -0.604047,-0.58937 -0.917559,-0.85227 -1.403403,-1.17688 -2.057405,-1.37461 -4.751624,-1.85798 -7.182837,-1.28869 -1.477322,0.34592 -2.738611,0.97303 -3.810331,1.89444 -0.8654728,0.7441 -1.5568152,1.54496 -1.9956115,2.31175 -0.8206789,1.43411 -1.2096374,2.74137 -1.3107296,4.40535 -0.054688,0.90021 0.129536,2.20245 0.4455314,3.14933 0.6201722,1.85837 1.4647336,3.079 3.0523527,4.41155 0.577922,0.48507 1.50032,1.01811 2.257955,1.30487 1.451691,0.5494 2.85069,0.75097 4.296343,0.61895 z m -1.477476,-1.70789 c -2.004536,-0.19825 -3.790898,-1.1153 -5.037924,-2.58623 -1.1850332,-1.39781 -1.8059438,-3.06051 -1.8047989,-4.83295 0.00128,-1.99276 0.7101112,-3.73898 2.1136829,-5.20715 1.083874,-1.13375 2.475109,-1.86816 4.117644,-2.17366 0.441389,-0.0821 1.554822,-0.11318 2.033461,-0.057 1.672733,0.19695 3.153147,0.88487 4.331557,2.01271 1.519043,1.45387 2.334569,3.33779 2.333293,5.39004 -9.92e-4,1.6841 -0.491293,3.14551 -1.507478,4.4938 -1.188849,1.57738 -2.898001,2.59858 -4.849236,2.89739 -0.494182,0.0758 -1.303425,0.10518 -1.730201,0.063 z m 1.386946,-2.81935 c 1.238426,-0.20088 2.23813,-0.8049 2.992077,-1.80788 1.175022,-1.56316 1.252993,-3.71992 0.193262,-5.34568 -0.821522,-1.26031 -1.988646,-1.96702 -3.512778,-2.12701 -1.187315,-0.12464 -2.527243,0.27735 -3.434931,1.0305 -0.3093,0.25661 -0.812317,0.85165 -1.029427,1.21771 -0.422877,0.713 -0.677646,1.62968 -0.677646,2.43822 0,0.64337 0.240387,1.58922 0.549947,2.1639 0.595155,1.10491 1.48962,1.86163 2.663004,2.25296 0.682685,0.2277 1.533527,0.29453 2.256492,0.17728 z"
       style="fill:url(#meshgradient2315);fill-opacity:1;stroke-width:0.03888093" />
  </g>
  <g
     id="layer2">
    <path
       id="path12889"
       d="M 5.4026476,18.634005 C 4.1444666,18.230513 3.0491537,17.238779 2.4719373,15.980433 2.1464002,15.270757 2.0922881,14.960982 2.0431646,13.525876 1.9907137,11.99355 2.00615,11.864291 2.2734866,11.596952 l 0.2865404,-0.286541 12.757957,2.16e-4 c 11.876189,1.9e-4 12.790477,0.01658 13.228547,0.236886 0.517925,0.26048 1.85099,1.813262 1.983946,2.310943 0.186393,0.697697 -0.445389,1.249675 -1.210542,1.057634 -0.17197,-0.04316 -0.520423,-0.36776 -0.774337,-0.721329 -0.831819,-1.158295 -0.755461,-1.12463 -2.550812,-1.12463 h -1.60738 l -0.05891,1.116743 c -0.104515,1.981577 -1.023898,3.374546 -2.765045,4.189326 -0.848009,0.396833 -0.908252,0.405062 -2.59237,0.354178 -1.538328,-0.04649 -1.797145,-0.09019 -2.401,-0.405536 -1.580494,-0.825346 -2.491432,-2.268433 -2.60763,-4.130945 l -0.07011,-1.123766 H 13.180816 12.46929 l -0.05054,1.116743 c -0.08502,1.879118 -1.029976,3.382604 -2.6168339,4.163541 -0.5955267,0.293077 -0.8800343,0.336626 -2.3688505,0.362598 -0.9306188,0.01624 -1.8443188,-0.01931 -2.0304427,-0.07901 z M 6.2162304,15.302206 C 7.1833308,14.330057 7.3391993,14.113448 7.2146392,13.914739 6.9032323,13.417948 6.571982,13.572233 5.42329,14.749079 c -0.9923236,1.016647 -1.1040218,1.18058 -0.9722133,1.426868 0.081905,0.153041 0.2547187,0.278256 0.3840299,0.278256 0.1293109,0 0.7508166,-0.518399 1.3811238,-1.151997 z m 12.3655266,0.08798 c 0.824269,-0.82913 1.047683,-1.135419 1.012046,-1.387471 -0.08291,-0.586491 -0.525212,-0.459832 -1.399357,0.400726 -1.366949,1.345703 -1.455048,1.460495 -1.357284,1.768519 0.171411,0.540073 0.63865,0.330699 1.744595,-0.781774 z M 4.7961944,13.879588 c 0.5541809,-0.562642 0.6440684,-0.719817 0.522539,-0.913699 -0.2807774,-0.447943 -0.651442,-0.34437 -1.3180542,0.368293 -0.5449958,0.582644 -0.6172322,0.722295 -0.4933532,0.953766 0.2299191,0.429607 0.5694646,0.322028 1.2888684,-0.40836 z m 12.3435476,0.07783 c 1.057089,-1.057093 0.48102,-1.813863 -0.622112,-0.817249 -0.618227,0.558532 -0.788643,0.936408 -0.551281,1.222409 0.267859,0.322752 0.539154,0.229077 1.173393,-0.40516 z"
       style="fill:#000000;stroke-width:0.13536286" />
  </g>
</svg>
