<?xml version="1.0" encoding="UTF-8" standalone="no"?>
<svg
   xmlns:dc="http://purl.org/dc/elements/1.1/"
   xmlns:cc="http://creativecommons.org/ns#"
   xmlns:rdf="http://www.w3.org/1999/02/22-rdf-syntax-ns#"
   xmlns:svg="http://www.w3.org/2000/svg"
   xmlns="http://www.w3.org/2000/svg"
   xmlns:xlink="http://www.w3.org/1999/xlink"
   id="svg8"
   version="1.1"
   viewBox="0 0 134.36852 50.51762"
   height="50.51762mm"
   width="134.36852mm">
  <defs
     id="defs2">
    <linearGradient
       id="linearGradient832">
      <stop
         id="stop828"
         offset="0"
         style="stop-color:#449459;stop-opacity:1" />
      <stop
         id="stop830"
         offset="1"
         style="stop-color:#1ace6b;stop-opacity:0" />
    </linearGradient>
    <radialGradient
       gradientUnits="userSpaceOnUse"
       gradientTransform="matrix(1.5225743,-0.61505024,0.16682395,0.41297743,-72.356091,133.5042)"
       r="67.184258"
       fy="162.54323"
       fx="84.15406"
       cy="162.54323"
       cx="84.15406"
       id="radialGradient834"
       xlink:href="#linearGradient832" />
  </defs>
  <metadata
     id="metadata5">
    <rdf:RDF>
      <cc:Work
         rdf:about="">
        <dc:format>image/svg+xml</dc:format>
        <dc:type
           rdf:resource="http://purl.org/dc/dcmitype/StillImage" />
        <dc:title></dc:title>
      </cc:Work>
    </rdf:RDF>
  </metadata>
  <g
     transform="translate(-32.010012,-112.92231)"
     id="layer1">
    <path
       id="path826"
       d="m 35.878015,149.81294 c 0,0 -2.081598,7.6734 -3.268376,9.75259 -2.531182,4.43453 2.876335,5.0317 17.648248,1.94895 19.169601,-4.00048 63.011613,-17.63042 84.442793,-26.25217 10.25302,-4.12484 10.44859,-4.22799 13.37812,-7.06149 3.40586,-3.29416 18.29972,-15.27851 18.29972,-15.27851 0,0 -16.27713,7.65533 -40.66236,17.34445 -26.849416,10.66822 -44.946131,18.53624 -59.178022,21.23087 -9.981619,1.88985 -19.754526,5.83788 -24.393678,4.20248 -2.33408,-0.82281 -6.266445,-5.88717 -6.266445,-5.88717 z"
       style="fill:url(#radialGradient834);fill-opacity:1;stroke-width:0.59062999" />
  </g>
</svg>
