<?xml version="1.0" encoding="UTF-8" standalone="no"?>
<svg
   xmlns:dc="http://purl.org/dc/elements/1.1/"
   xmlns:cc="http://creativecommons.org/ns#"
   xmlns:rdf="http://www.w3.org/1999/02/22-rdf-syntax-ns#"
   xmlns:svg="http://www.w3.org/2000/svg"
   xmlns="http://www.w3.org/2000/svg"
   id="svg892"
   version="1.1"
   viewBox="0 0 32 32"
   height="32mm"
   width="32mm">
  <defs
     id="defs886" />
  <metadata
     id="metadata889">
    <rdf:RDF>
      <cc:Work
         rdf:about="">
        <dc:format>image/svg+xml</dc:format>
        <dc:type
           rdf:resource="http://purl.org/dc/dcmitype/StillImage" />
        <dc:title></dc:title>
      </cc:Work>
    </rdf:RDF>
  </metadata>
  <g
     style="display:none"
     id="layer2">
    <path
       id="path837-3"
       d="m 21.193757,72.308096 c -0.431144,-0.31526 -0.503137,-0.70792 -0.497218,-2.71198 0.0095,-3.20972 0.780674,-4.50402 3.515238,-5.89971 0.526273,-0.2686 1.170125,-0.72419 1.430785,-1.01242 0.457906,-0.50635 0.451231,-0.55103 -0.197453,-1.32195 -0.830525,-0.98702 -2.0749,-1.49501 -4.642099,-1.89503 -4.286194,-0.66786 -4.45643,-0.73759 -4.793543,-1.96326 -0.447882,-1.62841 -0.377228,-5.84729 0.131394,-7.84576 0.240731,-0.94589 0.806545,-2.47653 1.257361,-3.40142 0.733176,-1.50419 0.963038,-1.74498 2.178373,-2.28199 3.113773,-1.37584 12.02323,-3.84159 13.880751,-3.84159 1.389586,0 5.392126,1.4347 9.201753,3.29835 l 3.467542,1.6963 0.168918,1.23239 c 0.289732,2.11385 0.489069,13.99421 0.24071,14.34633 -0.129077,0.18301 -1.634408,0.73137 -3.34518,1.21857 -1.710767,0.48721 -3.289197,1.06454 -3.507624,1.28296 -0.339865,0.33987 -0.355626,0.77466 -0.109275,3.01477 0.158329,1.43969 0.355708,2.98907 0.438618,3.44307 0.130048,0.71206 0.06272,0.84754 -0.490204,0.98631 -1.600703,0.40175 -15.485163,2.0019 -17.544545,2.02197 -0.154088,0.002 -0.507024,-0.16316 -0.784302,-0.36591 z m 9.447557,-4.14437 0.974762,-0.77559 0.08357,0.72607 c 0.131503,1.14251 1.103352,1.11353 2.215856,-0.0661 0.78653,-0.83396 0.910424,-0.89075 0.910424,-0.41732 0,1.37203 1.961446,0.0673 2.277959,-1.51524 l 0.169437,-0.84717 -1.554428,0.004 c -0.854934,0.002 -3.262077,0.12052 -5.349205,0.26303 -4.084598,0.27889 -5.818577,0.77886 -6.387412,1.84174 -0.683287,1.27673 1.197771,1.8059 2.846398,0.80074 1.059524,-0.646 1.171847,-0.6528 1.075174,-0.0652 -0.22261,1.35312 1.070692,1.37724 2.737464,0.0511 z m 0.34685,-7.65782 c 0.173755,-0.50933 0.397968,-1.2604 0.498247,-1.66905 l 0.182325,-0.743 -1.614112,1.1383 -1.614109,1.13832 0.709647,0.6104 c 0.927415,0.79773 1.449869,0.66272 1.838002,-0.47497 z m -5.642673,-4.29948 c 0.409508,-0.47295 1.415666,-1.72142 2.235901,-2.7744 1.681615,-2.15876 1.730351,-2.62053 0.498416,-4.72266 -0.921639,-1.57266 -2.500902,-2.3142 -4.409032,-2.07025 -2.019435,0.25818 -3.974833,1.04482 -4.838814,1.94663 -0.727416,0.75925 -0.741257,0.82888 -0.565264,2.84352 0.191961,2.19743 0.529879,3.9834 0.805916,4.25943 0.178403,0.17841 4.512183,1.31929 5.15071,1.35595 0.207684,0.0119 0.712663,-0.36528 1.122167,-0.83822 z m 14.219179,-0.21806 c 0.728861,-0.15632 1.624899,-0.51995 1.991188,-0.80807 0.768665,-0.60464 1.511795,-2.77235 2.009574,-5.86196 0.325948,-2.02307 0.32063,-2.07159 -0.301244,-2.747 -0.88111,-0.95696 -3.073982,-1.93531 -4.337217,-1.93504 -0.826119,1.8e-4 -1.336495,0.22066 -2.326068,1.00485 -1.453878,1.15212 -3.577278,3.63249 -3.779343,4.4147 -0.08211,0.31786 0.40009,1.66868 1.204216,3.37344 l 1.341176,2.84328 h 1.436259 c 0.78994,0 2.032598,-0.12788 2.761459,-0.2842 z m 34.999532,16.01617 c -3.124101,-1.06419 -3.120212,-1.05962 -3.309921,-3.89634 -0.170211,-2.54516 -0.683072,-4.66715 -1.52976,-6.32954 -0.335952,-0.6596 -1.525481,-1.7599 -3.667662,-3.39257 -3.89283,-2.96691 -5.566431,-4.74464 -5.566137,-5.91244 2.64e-4,-1.55429 1.424403,-3.99152 3.623913,-6.20242 2.970406,-2.98578 5.900864,-5.3935 7.811574,-6.41814 2.078363,-1.11454 3.719553,-1.1501 6.397773,-0.13863 2.15907,0.81541 2.79074,1.18527 6.69254,3.91857 5.23909,3.67011 6.50147,5.93967 4.97003,8.93538 -0.18598,0.3638 -1.43537,1.73302 -2.77642,3.0427 -1.34105,1.30969 -2.60497,2.7684 -2.80871,3.24157 -0.61149,1.42011 -1.11928,4.29186 -1.44511,8.17254 -0.34066,4.05725 -0.46521,4.34573 -2.22517,5.15391 -1.51249,0.69454 -3.80612,0.6296 -6.16694,-0.17459 z m -0.3438,-4.68561 c 0.12267,-0.32743 0.3078,-1.39899 0.41138,-2.38125 0.17732,-1.68131 0.15682,-1.78594 -0.34989,-1.78594 -0.40364,0 -0.5714,0.21503 -0.67088,0.8599 -0.498242,3.23 -0.475691,3.9026 0.13083,3.9026 0.14054,0 0.35589,-0.26789 0.47856,-0.59531 z m 1.74824,-1.94028 c 0,-1.92068 -0.0738,-2.3592 -0.39688,-2.3592 -0.31276,0 -0.41341,0.44366 -0.47492,2.09328 -0.0853,2.28771 0.0365,2.90354 0.54121,2.73533 0.23144,-0.0771 0.33059,-0.81776 0.33059,-2.46941 z m 1.66505,0.17407 c 0.0544,-1.56064 -0.0207,-2.28406 -0.25196,-2.42701 -0.61709,-0.38138 -0.75163,0.0558 -0.75163,2.44229 0,2.12879 0.0498,2.37553 0.46302,2.29657 0.38955,-0.0744 0.47532,-0.44128 0.54057,-2.31185 z m 1.37766,0.0244 c 0,-2.44974 -0.0805,-2.74395 -0.68733,-2.5111 -0.27668,0.10617 -0.37101,0.69573 -0.37101,2.31892 0,2.22165 0.0858,2.52933 0.70556,2.52933 0.26735,0 0.35278,-0.56592 0.35278,-2.33715 z m 1.74733,0.1688 c -0.18882,-2.26411 -0.51897,-3.06464 -1.07395,-2.60404 -0.22918,0.1902 -0.25419,0.78443 -0.092,2.18607 0.27469,2.37392 0.3489,2.58632 0.90357,2.58632 0.39323,0 0.42282,-0.24458 0.26239,-2.16835 z m -8.343562,-8.82135 c 1.105952,-0.5719 2.305912,-2.34027 2.509562,-3.6983 0.34217,-2.28179 -1.51881,-5.61974 -3.395771,-6.09083 -2.534312,-0.63606 -4.316021,4.5711 -2.729751,7.97786 0.97663,2.09745 2.036191,2.6282 3.61596,1.81127 z m 9.315572,-1.71132 c 1.54508,-1.21537 2.33437,-4.63298 1.52259,-6.59279 -0.37566,-0.90694 -1.45273,-1.60827 -2.46988,-1.60827 -0.81899,0 -2.33186,1.02085 -2.75649,1.86003 -0.884,1.74701 0.14461,5.30868 1.82989,6.33617 1.07347,0.65448 1.0481,0.65442 1.87389,0.005 z m -93.140703,16.42464 c -0.641371,-0.4034 -0.859896,-0.73183 -0.859896,-1.29236 0,-1.2305 -0.972069,-1.89746 -3.210632,-2.20289 -2.546435,-0.34743 -3.021634,-0.67761 -3.379964,-2.34844 -0.158714,-0.74005 -0.288571,-1.57196 -0.288571,-1.84867 0,-0.27673 -0.133827,-1.12715 -0.297395,-1.88984 -0.269468,-1.25648 -0.574956,-1.67534 -3.253249,-4.46057 -1.625721,-1.69065 -3.158768,-3.5015 -3.406772,-4.02413 -0.88549,-1.86603 -0.423899,-3.39852 1.700087,-5.64432 1.952915,-2.06492 7.414812,-6.12568 9.697771,-7.21001 1.796875,-0.85345 2.064683,-0.90721 3.96875,-0.79666 2.533596,0.1471 4.785839,1.07653 9.84082003,4.06099 5.95066197,3.51327 7.12710197,5.13771 5.70055397,7.87133 -0.395388,0.75767 -1.016564,2.21102 -1.380387,3.22966 -0.363826,1.01864 -0.952159,2.35745 -1.307407,2.97513 -0.582205,1.0123 -0.651407,1.45843 -0.701733,4.52385 -0.04137,2.52007 -0.155401,3.52066 -0.44030897,3.86362 -0.211463,0.25455 -1.120677,0.81066 -2.02047103,1.23578 -1.286048,0.60763 -1.703691,0.95585 -1.952476,1.62792 -0.543165,1.46731 -0.678076,1.63472 -1.746223,2.16699 -0.736688,0.3671 -1.734751,0.54531 -3.421351,0.61088 -2.041801,0.0794 -2.503829,0.0155 -3.241146,-0.44826 z m 2.967361,-3.69788 c -0.0497,-1.39661 -0.09773,-2.74764 -0.10673,-3.0023 -0.02548,-0.72117 -0.779695,-0.54404 -0.97363,0.22866 -0.220907,0.88016 0.06174,4.29783 0.437083,5.28506 0.482971,1.27031 0.74189,0.25946 0.643277,-2.51142 z m -1.540133,-0.45316 c -0.05789,-1.66933 -0.174317,-3.10422 -0.258734,-3.18864 -0.08442,-0.0844 -0.351249,-0.0776 -0.59296,0.0152 -0.386784,0.14843 -0.41638,0.4767 -0.246845,2.73797 0.206864,2.75918 0.500806,3.90513 0.933148,3.63793 0.169239,-0.1046 0.231207,-1.30445 0.165391,-3.20242 z m 5.12121,0.0222 c 0,-2.79602 -0.06638,-3.34107 -0.423577,-3.47814 -0.72367,-0.2777 -0.909569,0.48387 -0.754163,3.08957 0.189531,3.17785 0.301199,3.70417 0.785905,3.70417 0.325212,0 0.391835,-0.56375 0.391835,-3.3156 z m -1.944847,-0.0578 c -0.0497,-2.92557 -0.190184,-3.50573 -0.848893,-3.50573 -0.272975,0 -0.379772,0.31938 -0.376019,1.12448 0.006,1.28936 0.459537,4.6427 0.675077,4.99145 0.432694,0.70011 0.593134,-0.0615 0.549835,-2.6102 z m -2.484309,-7.01146 c -0.09599,-0.752 -0.247749,-0.99219 -0.626875,-0.99219 -0.605466,0 -0.621886,0.25498 -0.09727,1.51055 0.487911,1.16774 0.901582,0.87162 0.724147,-0.51836 z m 1.69371,0.26458 c -0.03545,-0.93386 -0.132381,-1.12448 -0.571846,-1.12448 -0.42836,0 -0.514777,0.15122 -0.453633,0.79375 0.108918,1.14458 0.25545,1.45521 0.686446,1.45521 0.279381,0 0.370271,-0.30146 0.339033,-1.12448 z m -4.835249,-5.0446 1.292847,-1.13112 -0.631389,-0.40069 c -2.573486,-1.63318 -5.846278,-2.1794 -8.691308,-1.45053 -0.935672,0.2397 -1.753413,0.48802 -1.817202,0.55181 -0.194813,0.19481 0.5372,1.81602 1.107967,2.45385 0.752556,0.84097 1.753715,1.06817 4.800404,1.08937 l 2.645834,0.0184 1.292847,-1.13112 z m 12.42320903,0.46269 C 2.060086,55.958806 2.066314,55.956036 2.454791,55.026276 c 0.214204,-0.51266 0.333409,-1.07819 0.264901,-1.25672 -0.191675,-0.4995 -2.88981097,-0.93654 -5.781808,-0.93654 -2.678581,0 -3.990504,0.32291 -4.677512,1.15131 -0.327802,0.39527 -0.141275,0.54293 1.852082,1.46618 1.45365,0.67328 2.489804,0.99384 3.010348,0.93133 0.436562,-0.0524 1.727223,-0.16914 2.86813903,-0.25938 z M 153.15496,71.872606 c -0.8912,-0.35795 -0.98252,-0.91169 -0.4945,-2.99855 0.53641,-2.29383 0.5668,-3.60562 0.0835,-3.60562 -0.19289,0 -1.21507,0.65484 -2.27151,1.4552 -2.35293,1.78258 -3.53764,1.95064 -4.80647,0.68181 -0.87821,-0.87821 -0.97134,-1.68027 -0.36389,-3.13409 0.53492,-1.28024 1.17037,-1.94895 3.50527,-3.68877 l 1.9304,-1.4384 -1.59567,-1.70578 c -2.11661,-2.26267 -2.51129,-3.05273 -2.50108,-5.00664 0.0166,-3.17904 2.29588,-6.40081 5.33686,-7.54368 3.62344,-1.36178 9.02507,-1.28765 12.2293,0.16783 2.92664,1.32938 4.7425,3.90009 4.96834,7.03367 0.1126,1.56229 0.0463,1.90875 -0.56455,2.95114 -0.38068,0.64957 -1.31648,1.86417 -2.07957,2.69911 l -1.38743,1.51807 0.64678,0.42557 c 3.59986,2.36869 5.10525,4.1969 5.07806,6.16701 -0.0196,1.41912 -0.68155,2.08101 -2.2591,2.25882 -1.15393,0.13007 -1.30961,0.0627 -3.19736,-1.38318 -2.76604,-2.11861 -3.18827,-1.8783 -2.37781,1.35332 0.55431,2.21029 0.43294,3.30086 -0.41486,3.72749 -0.782,0.39352 -8.51485,0.44717 -9.46472,0.0657 z m 2.10326,-2.77057 c 0.10297,-0.58051 0.21591,-1.53173 0.25098,-2.11381 0.0363,-0.60243 0.12835,-0.14653 0.21369,1.05833 0.13388,1.89031 0.20651,2.11667 0.67908,2.11667 0.48106,0 0.53622,-0.20223 0.60669,-2.22436 0.0816,-2.34269 -0.1531,-3.00188 -0.86006,-2.41516 -0.29237,0.24265 -0.50439,0.25876 -0.74769,0.0568 -0.64717,-0.5371 -0.94652,0.1038 -1.13532,2.43066 -0.17842,2.19894 -0.16011,2.33227 0.30786,2.24214 0.34572,-0.0666 0.55469,-0.41792 0.68477,-1.15131 z m 3.07191,-1.25392 c -0.0611,-1.96526 -0.15426,-2.44739 -0.47295,-2.44739 -0.31869,0 -0.41186,0.48213 -0.47295,2.44739 -0.0723,2.32496 -0.0486,2.4474 0.47295,2.4474 0.52156,0 0.54522,-0.12244 0.47295,-2.4474 z m 1.5875,0 c -0.0611,-1.96526 -0.15426,-2.44739 -0.47295,-2.44739 -0.31869,0 -0.41186,0.48213 -0.47295,2.44739 -0.0723,2.32496 -0.0486,2.4474 0.47295,2.4474 0.52156,0 0.54522,-0.12244 0.47295,-2.4474 z m 1.75555,0.52917 c -0.21744,-2.25702 -0.51853,-3.19614 -0.97336,-3.03597 -0.22211,0.0782 -0.30897,0.62282 -0.26717,1.67515 0.10295,2.59221 0.28982,3.27905 0.89212,3.27905 0.50251,0 0.52256,-0.11042 0.34841,-1.91823 z m -3.02225,-6.71618 c 0,-0.78301 -0.51641,-2.7564 -0.81096,-3.09892 -0.10592,-0.12318 -0.32397,0.3887 -0.48456,1.1375 -0.49099,2.28943 -0.39688,2.65833 0.67816,2.65833 0.4905,0 0.61736,-0.1432 0.61736,-0.69691 z m -5.27514,-3.28069 c 0.281,-0.15038 0.75428,-0.75046 1.05172,-1.3335 0.29744,-0.58303 0.82048,-1.1875 1.16231,-1.34324 0.69906,-0.31851 1.20903,-1.25348 1.20903,-2.21661 0,-0.89839 -0.9285,-1.07084 -2.81414,-0.52267 -2.15882,0.62758 -3.53586,2.02453 -3.53586,3.58697 0,0.68462 0.1737,1.32671 0.43788,1.61863 0.48255,0.53322 1.69448,0.63567 2.48906,0.21042 z m 11.61653,-0.11307 c 0.64403,-0.77601 0.62771,-2.32624 -0.0348,-3.30198 -1.07417,-1.58212 -4.51807,-2.85828 -5.59193,-2.07212 -0.4271,0.31268 -0.44067,0.45603 -0.13229,1.39731 0.21942,0.66973 0.59487,1.16929 1.03866,1.38199 0.38225,0.18321 0.84486,0.69486 1.028,1.13701 0.18314,0.44214 0.63058,1.03799 0.99431,1.32409 0.77754,0.61162 2.24119,0.68415 2.69802,0.1337 z m -55.49502,13.20379 c -0.52374,-0.36684 -0.58804,-0.64168 -0.58804,-2.51354 v -2.10166 h -0.94639 c -0.69324,0 -1.15328,-0.20688 -1.71979,-0.7734 l -0.7734,-0.7734 v -9.43045 c 0,-5.96201 0.1002,-9.61768 0.27242,-9.93949 0.6714,-1.25452 1.1607,-1.30826 11.9106,-1.30826 10.98078,0 11.19533,0.0273 11.87152,1.51138 0.18892,0.41465 0.28713,3.7881 0.28713,9.86339 v 9.23322 l -0.61832,0.71884 c -0.42576,0.49497 -0.97137,0.76736 -1.75198,0.87465 l -1.13365,0.15581 0.008,1.94248 c 0.01,2.33437 -0.41311,2.95231 -2.01924,2.95231 -1.53925,0 -1.89309,-0.56024 -1.89309,-2.9974 0,-1.17673 -0.11119,-2.02968 -0.26458,-2.02968 -0.15287,0 -0.26458,0.83784 -0.26458,1.98437 0,1.6316 -0.0941,2.07845 -0.52917,2.51354 -0.63875,0.63875 -2.02561,0.6958 -2.85154,0.11729 -0.52375,-0.36684 -0.58804,-0.64168 -0.58804,-2.51354 0,-1.22472 -0.1104,-2.10166 -0.26459,-2.10166 -0.15287,0 -0.26458,0.83784 -0.26458,1.98437 0,1.6316 -0.0941,2.07845 -0.52917,2.51354 -0.63875,0.63875 -2.02561,0.6958 -2.85154,0.11729 -0.52374,-0.36684 -0.58804,-0.64168 -0.58804,-2.51354 0,-1.22472 -0.1104,-2.10166 -0.26458,-2.10166 -0.15419,0 -0.26459,0.87694 -0.26459,2.10166 0,1.87186 -0.0643,2.1467 -0.58804,2.51354 -0.32342,0.22653 -0.95177,0.41188 -1.39633,0.41188 -0.44457,0 -1.07292,-0.18535 -1.39634,-0.41188 z m 10.78905,-9.96357 c 0,-2.32259 -0.052,-2.64806 -0.36976,-2.3151 -0.7844,0.82188 -4.12816,4.79255 -4.12816,4.90214 0,0.0635 1.01203,0.11549 2.24896,0.11549 h 2.24896 z m -6.21771,-2.10956 c 0.43656,-0.31839 0.97234,-0.82018 1.19062,-1.1151 1.55383,-2.09936 1.35449,-5.96818 -0.52057,-10.10354 -0.62983,-1.38908 -0.87251,-1.66972 -1.57783,-1.82463 -1.13228,-0.24869 -1.96601,0.34169 -2.79623,1.98005 -1.81666,3.585 -1.95324,9.51162 -0.26227,11.38013 0.82147,0.90771 2.46741,0.7762 3.96628,-0.31691 z m 11.00373,-3.46432 c 1.16134,-0.78263 1.48514,-1.70194 1.07804,-3.06071 -0.3235,-1.07976 -1.8033,-3.44222 -3.17389,-5.06704 -0.75464,-0.89462 -0.79869,-0.91019 -1.29818,-0.45876 -1.59223,1.43901 -1.50667,7.63149 0.12241,8.85928 0.69902,0.52683 2.28079,0.39495 3.27162,-0.27277 z M 28.441227,16.81897 C 27.046452,16.42468 26.132716,15.348939 25.928783,13.861079 L 25.758166,12.61632 h 0.916181 c 0.845884,0 0.908966,0.0558 0.822132,0.72761 -0.117639,0.91009 0.264342,1.51703 0.820457,1.303628 0.277728,-0.106579 0.423574,-0.484259 0.423574,-1.096888 0,-0.89144 0.04253,-0.93435 0.926042,-0.93435 0.883515,0 0.926041,0.0429 0.926041,0.93435 0,0.612629 0.145847,0.990309 0.42358,1.096888 0.521105,0.199962 0.889902,-0.33705 0.895289,-1.303628 0.0037,-0.654392 0.09724,-0.72761 0.93009,-0.72761 0.906772,0 0.926044,0.02241 0.926044,1.077741 0,0.883449 0.08347,1.061907 0.463021,0.989978 0.323588,-0.0613 0.487746,-0.385861 0.545137,-1.07773 0.07731,-0.93209 0.134411,-0.989989 0.976217,-0.989989 0.84219,0 0.898864,0.0576 0.976212,0.99219 0.06525,0.788429 0.190794,0.99219 0.611288,0.99219 0.420492,0 0.546029,-0.203761 0.611283,-0.99219 0.07546,-0.91178 0.147537,-0.99219 0.889344,-0.99219 0.788834,0 0.803066,0.0226 0.624779,0.99219 -0.235413,1.28024 -1.228275,2.310929 -2.758837,2.863948 -1.459349,0.52728 -6.828983,0.752412 -8.264813,0.346512 z m 37.403042,-0.36548 c -0.475176,-0.206502 -0.926965,-0.539652 -1.003975,-0.740341 -0.07701,-0.200689 0.520126,-1.895639 1.326973,-3.76655 0.806844,-1.870909 1.466993,-3.4350407 1.466993,-3.4758387 0,-0.0408 -0.35511,-0.257821 -0.789141,-0.482262 -0.547645,-0.283199 -1.418055,-0.391239 -2.844268,-0.353049 -1.193271,0.032 -2.296644,-0.0767 -2.631027,-0.259091 -0.767139,-0.418438 -1.677853,-2.916629 -1.861405,-5.106029 -0.384117,-4.58174 2.546797,-10.815601 6.586299,-14.0086513 3.033173,-2.397577 5.484231,-3.162019 10.138504,-3.162019 3.87637,0 5.81772,0.447204 7.78712,1.793814 4.1106,2.810687 8.36091,11.1399373 7.43646,14.5730753 -0.36517,1.356151 -1.34818,2.167911 -4.04564,3.34087 -4.56527,1.98515 -4.94933,2.862731 -3.37377,7.7090797 0.33697,1.0365 0.5408,2.071841 0.45296,2.300751 -0.18517,0.482531 -2.51834,1.23866 -3.82211,1.23866 -0.79635,0 -0.94648,-0.12159 -1.38841,-1.124479 -0.27253,-0.618472 -0.63921,-1.719789 -0.81485,-2.447402 -0.17563,-0.727598 -0.41255,-1.426368 -0.52649,-1.552818 -0.21576,-0.239451 -1.57298,3.721201 -1.57298,4.590291 0,0.9608 -0.72144,1.328409 -2.59858,1.32411 -0.971871,-0.0021 -1.901643,-0.0915 -2.066153,-0.198441 -0.16451,-0.10692 -0.38526,-1.176652 -0.490559,-2.377201 -0.105299,-1.20055 -0.26942,-2.18281 -0.364709,-2.18281 -0.0953,0 -0.668232,1.07156 -1.27321,2.38125 -1.066691,2.30922 -1.12663,2.38093 -1.98202,2.370891 -0.485132,-0.006 -1.270839,-0.17931 -1.746012,-0.38581 z M 76.271662,7.4521983 c 0.17935,-0.467399 -0.38615,-1.979628 -0.7403,-1.979628 -0.44189,0 -0.55274,0.7943 -0.22221,1.592249 0.35798,0.864251 0.72312,1.011201 0.96251,0.387379 z m 1.36718,-0.903279 c 0.0615,-0.841981 -0.006,-1.101968 -0.26458,-1.016151 -0.46126,0.153191 -0.86873,1.35024 -0.65192,1.915221 0.30287,0.789271 0.83096,0.271219 0.9165,-0.89907 z m -7.945563,-3.07476 c 2.077292,-0.86773 3.308242,-2.63457003 3.308242,-4.748459 0,-1.49942 -0.465532,-2.57172 -1.573321,-3.62399 -3.387601,-3.21778 -9.085604,-0.945012 -9.085604,3.62399 0,3.666239 3.904036,6.18821 7.350683,4.748459 z M 85.237752,0.32660927 c 1.42927,-0.59718 2.24026,-1.63088897 2.24026,-2.85546997 0,-2.678279 -3.3315,-4.193781 -6.27839,-2.856061 -2.76633,1.255771 -2.758,4.32308 0.0152,5.58218997 1.32694,0.602472 2.7789,0.649152 4.02297,0.129341 z M 113.4601,16.532159 c -0.17463,-0.174631 -0.3175,-0.543589 -0.3175,-0.81991 0,-0.27633 -0.17051,-0.877591 -0.3789,-1.336151 -0.2084,-0.458549 -0.41676,-1.059098 -0.46302,-1.33454 -0.0463,-0.275449 -0.29994,-0.632639 -0.56372,-0.79375 -0.39226,-0.239598 -0.57796,-0.172997 -1.01976,0.365731 -0.42723,0.52096 -0.51486,0.922042 -0.41914,1.91823 0.0896,0.932391 0.0296,1.259551 -0.23091,1.259551 -0.6227,0 -1.11296,-1.128731 -1.66635,-3.836461 -0.94299,-4.6140097 -1.5585,-5.9641387 -2.93824,-6.4451197 -0.43264,-0.150821 -0.78663,-0.37863 -0.78663,-0.50623 0,-0.127601 0.29766,-1.107149 0.66146,-2.17677 0.3638,-1.06962 0.66146,-2.12079903 0.66146,-2.33594003 0,-0.215151 -0.47875,-0.833149 -1.06388,-1.373341 -1.02929,-0.95023997 -1.06915,-1.05057797 -1.22614,-3.08637997 -0.2648,-3.4338 0.55266,-6.8217283 1.95112,-8.0863893 0.30875,-0.279207 1.16911,-0.531016 2.17279,-0.635918 1.17213,-0.12251 1.87638,-0.354378 2.39061,-0.78708 1.60602,-1.351378 2.42503,-1.327198 5.17033,0.152651 1.38951,0.749009 1.76515,0.83828 3.04058,0.722591 0.80037,-0.0726 2.31189,-0.500121 3.35894,-0.95005 3.31918,-1.426295 4.51615,-1.04344 7.20244,2.303737 1.61074,2.0070293 2.4477,3.9762303 2.48737,5.8523093 0.0419,1.98288 -0.51946,2.85357 -2.98399,4.62806997 -2.49662,1.79760003 -3.0135,2.34857903 -3.74862,3.99590903 -0.46453,1.040961 -0.5847,1.78643 -0.56906,3.530251 0.0191,2.130251 -0.009,2.236269 -0.76909,2.915539 -0.68035,0.6078907 -0.79715,0.9121407 -0.8487,2.2107917 -0.075,1.890308 -0.62112,2.584919 -2.03219,2.584919 -0.54773,0 -1.35506,-0.20614 -1.79405,-0.458089 l -0.79817,-0.458092 -1.5835,1.648711 c -1.56196,1.626291 -2.27339,1.953372 -2.89554,1.33122 z m 2.15392,-5.17261 c 0.0692,-0.254659 0.0475,-1.6536397 -0.0483,-3.1088487 -0.13715,-2.083731 -0.25751,-2.645841 -0.56653,-2.645841 -0.54721,0 -0.76229,1.605121 -0.48654,3.630869 0.27154,1.9948317 0.44241,2.5868417 0.74663,2.5868417 0.12591,0 0.28555,-0.208362 0.35476,-0.463021 z m 3.53533,-2.9102097 c 0.0416,-2.47764 -0.0303,-3.266959 -0.31913,-3.5067 -0.81104,-0.6731 -0.98407,-0.02281 -0.80076,3.009521 0.20203,3.3418997 0.32184,3.9420587 0.75798,3.7970307 0.2079,-0.0691 0.32575,-1.143672 0.36191,-3.2998517 z m -5.07338,2.7779207 c 0.25604,-0.688321 -0.26779,-6.1075007 -0.60102,-6.2178687 -0.8208,-0.271852 -0.91414,2.667299 -0.18905,5.9532887 0.14248,0.64572 0.59227,0.79634 0.79007,0.26458 z m 3.11739,-2.9104217 c -0.0956,-1.952439 -0.26823,-3.106729 -0.50168,-3.354898 -0.3059,-0.32517 -0.38675,-0.294971 -0.57537,0.214908 -0.23353,0.631291 0.11295,4.523912 0.49144,5.5212397 0.51593,1.359533 0.72683,0.501992 0.58561,-2.3812497 z m 4.2914,-4.365619 c 0.24663,-0.69123 0.62284,-1.733019 0.83602,-2.31511 0.21317,-0.582081 0.68766,-1.37460003 1.05442,-1.76115903 0.63638,-0.670722 0.66868,-0.858081 0.70722,-4.10104197 0.0367,-3.09254 -0.0126,-3.48338 -0.54843,-4.344969 -1.36971,-2.2023603 -4.12884,-1.9636293 -4.72428,0.40876 -0.15159,0.603999 -0.2755,0.676169 -0.9184,0.534969 -1.17488,-0.258048 -1.40218,0.474732 -1.18193,3.810291 0.19113,2.89456097 0.72027,4.64836997 1.72518,5.718051 0.27699,0.294838 0.70032,1.0107 0.94074,1.590799 0.88241,2.129132 1.46817,2.2567 2.10946,0.45941 z m -9.28255,-1.16858 h 1.13257 l 0.15679,-1.679081 c 0.26742,-2.863659 -0.62391,-6.711788 -1.68631,-7.28037 -1.1848,-0.63409 -2.72544,0.064 -3.32897,1.508511 -0.44033,1.053849 -0.45682,2.77567 -0.0577,6.02338 l 0.30307,2.466182 1.17399,-0.519311 c 0.64569,-0.285621 1.68364,-0.519311 2.30656,-0.519311 z M -12.212835,16.11898 c -0.755087,-0.37561 -1.111959,-0.390591 -2.723069,-0.11431 -3.341801,0.57305 -3.946327,-0.224441 -3.952199,-5.213771 -0.0043,-3.6723587 -0.126437,-4.2590907 -0.887142,-4.2625807 -1.787826,-0.008 -5.513562,-2.81818 -6.53545,-4.929118 -0.535492,-1.10618103 -0.57382,-1.46965003 -0.424867,-4.029062 0.192945,-3.315298 0.957518,-6.446049 2.096539,-8.5848193 0.784742,-1.473528 1.388522,-1.989836 2.844117,-2.432098 0.641149,-0.194799 0.647242,-0.185039 0.198437,0.31804 -0.254661,0.285462 -0.46302,0.58452 -0.46302,0.66457 0,0.08 0.896569,0.820359 1.992376,1.645129 1.095807,0.8247703 1.931884,1.5974593 1.857947,1.7170903 -0.07394,0.119629 -0.625404,0.296029 -1.225484,0.39198 l -1.091053,0.174469 1.067931,1.158571 c 0.587363,0.637209 1.503586,1.764969 2.036051,2.50612 0.532466,0.741148 1.004074,1.347549 1.048018,1.347549 0.04394,0 -0.322673,-0.922739 -0.814704,-2.05052 l -0.894604,-2.050519 0.72374,-0.18516 c 0.398056,-0.101841 1.05978,-0.255101 1.470497,-0.34058 l 0.746758,-0.155421 -1.838595,-2.0406713 -1.838595,-2.040665 1.435062,-0.88388 c 1.18888,-0.73224 1.380375,-0.94977 1.116279,-1.267981 -0.209461,-0.252387 -0.229336,-0.473557 -0.05795,-0.644938 0.426821,-0.426823 6.648464,-1.092441 9.215286,-0.985891 2.306675,0.09575 2.435111,0.135181 4.101042,1.25907 2.18172803,1.471859 4.731504,4.084487 5.960155,6.1070653 1.080415,1.778551 2.506511,5.481 2.506511,6.507441 0,1.155321 -1.552239,3.67375 -3.669485,5.953551 -2.46028797,2.64919 -3.967487,3.665489 -5.444294,3.67107 -0.589973,0.0021 -1.203523,0.0915 -1.363445,0.198429 -0.172191,0.11512 -0.358228,1.639462 -0.45619,3.7378797 -0.181591,3.889819 -0.332478,4.272309 -1.956525,4.959699 -1.145653,0.484902 -3.706575,0.428252 -4.780072,-0.105738 z m -2.30603,-5.09016 c 0,-2.0725707 -0.0415,-2.2489607 -0.529167,-2.2489607 -0.483394,0 -0.535804,0.20197 -0.605902,2.3348997 -0.07561,2.30064 -0.06785,2.333631 0.529167,2.248961 0.577219,-0.0819 0.605902,-0.192402 0.605902,-2.3349 z m 2.116666,0 c 0,-2.0725707 -0.0415,-2.2489607 -0.529166,-2.2489607 -0.483394,0 -0.535805,0.20197 -0.605902,2.3348997 -0.07561,2.30064 -0.06785,2.333631 0.529166,2.248961 0.577219,-0.0819 0.605902,-0.192402 0.605902,-2.3349 z m 2.116667,0 c 0,-2.0725707 -0.0415,-2.2489607 -0.529167,-2.2489607 -0.483394,0 -0.535804,0.20197 -0.605902,2.3348997 -0.07561,2.30064 -0.06785,2.333631 0.529167,2.248961 0.577219,-0.0819 0.605902,-0.192402 0.605902,-2.3349 z m 2.184526,0.264589 c 0.07254,-2.1211887 -0.155677,-2.8210487 -0.834906,-2.5603997 -0.342951,0.131601 -0.423578,0.59571 -0.423578,2.4381987 0,2.208612 0.01754,2.273181 0.595312,2.191121 0.549712,-0.0781 0.600511,-0.236548 0.663172,-2.06892 z m -8.291288,-8.1970407 c 2.550391,-0.41765 3.841937,-2.12946903 2.513625,-3.33158003 -0.445137,-0.402839 -1.072845,-0.517469 -3.281437,-0.599228 -2.922337,-0.10817 -4.464948,0.203599 -4.884291,0.987139 -0.554771,1.03660003 1.053899,2.64367203 2.956089,2.95314903 0.621423,0.1011 1.129859,0.198041 1.129859,0.215411 0,0.01741 0.70477,-0.0838 1.566155,-0.224891 z m 12.871761,-0.956558 c 2.64933903,-0.778621 3.95062603,-2.24124103 3.95062603,-4.44041 0,-1.37455 -0.393914,-1.876872 -1.79775503,-2.292511 -0.813912,-0.24098 -1.517355,-0.173599 -4.142995,0.39684 -1.739446,0.37791 -3.524164,0.898261 -3.966041,1.15633 -1.046144,0.610981 -1.599654,1.61108 -1.378761,2.49117897 0.238675,0.95096 1.439922,2.31670203 2.408893,2.73875303 1.101085,0.479607 3.195992,0.458258 4.926033,-0.0502 z M 151.21514,14.910678 c -0.22216,-0.487579 -0.13573,-1.047919 0.41445,-2.686849 0.50226,-1.496229 0.61501,-2.150919 0.40635,-2.3595797 -0.15883,-0.15883 -1.19049,-0.292939 -2.29257,-0.29803 -1.89799,-0.009 -2.03725,-0.0507 -2.63775,-0.79467 -1.43806,-1.781638 -2.71071,-8.00935903 -2.34684,-11.484259 0.59588,-5.690581 3.75414,-9.4844023 8.84534,-10.6253573 1.75785,-0.39394 5.76333,-0.309652 7.54055,0.158679 5.37548,1.416566 8.33856,5.7501683 8.35027,12.21253727 0.007,3.69771103 -1.15188,8.24625003 -2.49948,9.81293003 -0.55302,0.64293 -0.77335,0.70276 -2.63164,0.7146 -1.38125,0.009 -2.09681,0.124172 -2.2436,0.361701 -0.12744,0.2062297 0.044,1.0637197 0.41952,2.0982777 0.99192,2.732712 0.51673,3.986702 -1.25703,3.317182 -0.58604,-0.221199 -0.99549,-0.2306 -1.42962,-0.0328 -0.46601,0.212331 -0.83263,0.17077 -1.56672,-0.177581 -0.5271,-0.250121 -0.95836,-0.55667 -0.95836,-0.68123 0,-0.12455 -0.43333,0.0676 -0.96296,0.427029 -1.12099,0.760722 -1.36853,0.791181 -2.1248,0.261472 -0.49441,-0.3463 -0.59762,-0.3463 -0.88502,0 -0.52399,0.631359 -1.81177,0.496538 -2.14009,-0.224052 z m 4.72959,-5.5373877 c 0.30858,-0.328461 0.72821,-0.994769 0.93252,-1.4807 l 0.37148,-0.883492 0.83566,1.480701 c 0.93615,1.6587597 1.62487,1.9454707 1.62487,0.676399 0,-1.463288 -1.5183,-3.958209 -2.40879,-3.958209 -0.64623,0 -1.78887,1.561489 -2.24032,3.061539 -0.52584,1.7472207 -0.15483,2.2101627 0.88458,1.103762 z m -2.18859,-8.167912 c 1.56652,-0.41154903 2.25016,-1.16119803 2.24307,-2.459659 -0.0101,-1.843781 -1.50637,-3.12429 -2.84309,-2.43304 -0.77429,0.400399 -4.84304,3.88599897 -5.74998,4.925859 l -0.52917,0.606722 2.91042,-0.18092 c 1.60073,-0.0995 3.38667,-0.306041 3.96875,-0.458962 z m 12.69915,-2.942698 c -2.7675,-3.571791 -4.87734,-5.754691 -5.56208,-5.754691 -1.32014,0 -2.40542,2.073551 -2.17151,4.148889 0.15443,1.370042 0.91954,2.31489 2.22286,2.74502097 0.99592,0.328681 3.78446,0.691171 5.72513,0.74423 l 1.27188,0.0348 z M 26.262108,8.9782993 c 0.276791,-3.76202 -0.383405,-4.368839 -4.965518,-4.56406 -2.970085,-0.126539 -3.139352,-0.16507 -3.891613,-0.88601 -0.432559,-0.414541 -1.124236,-1.486101 -1.53706,-2.38125 -0.656987,-1.42456903 -0.750768,-1.94098003 -0.75202,-4.14107 -0.0013,-2.12394 0.0982,-2.718599 0.641284,-3.836459 0.955828,-1.96742 4.254082,-5.1440823 6.462474,-6.2242383 1.69621,-0.829641 2.006645,-0.890701 4.798907,-0.94388 2.4301,-0.0463 3.224676,-0.165351 4.271894,-0.640193 2.926387,-1.326918 6.14045,-1.659666 9.863799,-1.021189 3.36428,0.576903 4.83022,1.909493 5.911789,5.374029 0.473943,1.5181393 0.583999,2.5121213 0.587666,5.3075493 0.0042,3.215471 -0.04256,3.535432 -0.717881,4.91051097 -0.534598,1.08855103 -1.188021,1.84060003 -2.513544,2.89297003 -3.803737,3.01988 -4.826217,4.490151 -4.831273,6.94704 -0.0024,1.2194517 -0.02617,1.2567707 -0.796335,1.2567707 -0.774848,0 -0.79375,-0.0311 -0.79375,-1.3073007 0,-1.37564 -0.208669,-1.709489 -0.902163,-1.443371 -0.305287,0.117152 -0.420751,0.516721 -0.420751,1.456061 V 11.02882 h -0.912217 -0.912215 l -0.07997,-1.3890597 c -0.05889,-1.022792 -0.184621,-1.38906 -0.476848,-1.38906 -0.292809,0 -0.417978,0.368179 -0.477369,1.404179 l -0.0805,1.4041697 -0.977839,-0.0813 c -0.943174,-0.0784 -0.975051,-0.114091 -0.899242,-1.0072997 0.08615,-1.015072 -0.482023,-2.04279 -0.964499,-1.744602 -0.167595,0.103582 -0.304721,0.776621 -0.304721,1.495631 V 11.028779 H 29.666552 28.74051 V 9.7214783 c 0,-0.71901 -0.137126,-1.392049 -0.304721,-1.495631 -0.470164,-0.290579 -1.018196,0.675651 -1.018196,1.7951717 0,0.895148 -0.07299,1.00776 -0.653176,1.00776 -0.651304,0 -0.652743,-0.006 -0.502309,-2.0505197 z m 13.915337,-6.671011 c 1.263494,-0.99387 1.887781,-2.98579903 2.005018,-6.397469 0.15231,-4.432239 -0.797256,-7.4200803 -2.594814,-8.1646503 -0.667176,-0.276357 -0.894781,-0.258408 -1.465498,0.115531 -2.538399,1.663229 -3.350879,9.1118583 -1.409078,12.91809827 1.047321,2.05291003 2.168694,2.54767103 3.464372,1.52849003 z m -2.123874,-2.85398903 c -0.34608,-0.76386997 -0.449519,-1.75322897 -0.449519,-4.29947897 0,-2.835701 0.0758,-3.43631 0.531593,-4.21209 0.778584,-1.3251923 1.121407,-1.2954613 1.771446,0.15366 1.211715,2.701239 0.58366,9.35009897 -0.883211,9.35009897 -0.345493,0 -0.672092,-0.33397 -0.970309,-0.99219 z M 29.45066,1.7298883 c 0.463346,-0.140578 1.267018,-0.725538 1.78594,-1.29991903 1.151422,-1.27449 1.268108,-2.60175097 0.348181,-3.96053997 -2.527914,-3.733901 -9.839804,-2.11704 -9.380569,2.07431 0.305665,2.78974 3.67293,4.270279 7.246448,3.186149 z m -3.953804,-1.92715903 c -1.334034,-0.47603 -1.783429,-0.88738797 -1.783429,-1.63249997 0,-0.929249 1.07097,-1.48368 3.117244,-1.613749 1.364393,-0.0867 1.992786,-0.0021 2.703589,0.366659 1.723422,0.892641 1.246378,2.41855897 -0.927208,2.96588097 -1.455756,0.366559 -1.873634,0.354968 -3.110196,-0.0863 z M 67.225119,-38.565923 c -1.768327,-1.060106 -1.928691,-1.642629 -1.116666,-4.056328 0.378156,-1.124042 0.767448,-2.474725 0.865098,-3.001513 0.212029,-1.143926 -0.004,-1.330216 -3.790159,-3.273576 -1.99543,-1.02412 -2.663227,-1.526455 -3.49657,-2.630207 -1.415931,-1.875387 -1.842177,-3.025518 -1.841934,-4.970026 2.65e-4,-2.692212 1.031267,-4.532885 4.315706,-7.705476 5.048745,-4.876811 8.111596,-6.709106 11.663998,-6.977774 3.25341,-0.246054 5.09982,0.758776 9.99682,5.440341 2.76916,2.647333 3.7349,4.281353 4.19266,7.093932 0.44036,2.705673 -0.0312,3.792066 -2.68713,6.190197 -2.26261,2.043027 -2.76683,2.781112 -3.03178,4.43797 -0.22287,1.393769 0.65169,4.31708 1.74168,5.821773 0.63039,0.87023 0.75011,1.221809 0.54596,1.603267 -0.35402,0.661505 -1.73131,1.260273 -3.26857,1.420995 -1.72693,0.180557 -2.0383,-0.176522 -2.0383,-2.337517 0,-0.93549 -0.0953,-1.700896 -0.21167,-1.700896 -0.45383,0 -0.84666,0.672418 -0.84666,1.449256 0,1.715262 -0.57423,2.044282 -4.16719,2.387711 l -1.653652,0.158062 -0.0313,-0.873033 c -0.0172,-0.480168 -0.117719,-1.230222 -0.22334,-1.666785 -0.185619,-0.767209 -0.223899,-0.725757 -1.144879,1.239732 -1.285401,2.743211 -1.910141,3.06615 -3.772122,1.949895 z m 8.806973,-11.945619 c -0.21724,-0.217236 -2.31554,0.09202 -2.83969,0.418521 -0.325022,0.202457 -0.208301,0.437232 0.65883,1.325256 l 1.05382,1.079209 0.64917,-1.325846 c 0.35704,-0.729213 0.57208,-1.402927 0.47787,-1.49714 z m -4.164491,-3.50614 c 0.3638,-0.266609 0.936969,-0.977861 1.27371,-1.58056 0.542151,-0.970346 0.572441,-1.177001 0.264581,-1.804851 -0.563563,-1.149318 -1.589633,-1.707165 -4.355111,-2.367744 -4.492064,-1.073007 -6.514936,-0.746377 -6.862844,1.108134 -0.375301,2.000529 0.780706,3.820072 3.021959,4.756527 2.230604,0.932007 5.304015,0.880532 6.657705,-0.111506 z m 10.087651,0.48328 c 1.25835,-0.34953 2.34776,-1.45406 2.34776,-2.380337 0,-1.086692 -1.13281,-1.451228 -4.50975,-1.451228 -3.13174,0 -4.2215,0.403813 -4.2215,1.564288 0,1.888982 3.39906,3.096255 6.38349,2.267277 z m -59.101628,14.755415 c -0.398251,-0.305051 -0.391933,-0.546426 0.08138,-3.108854 0.282234,-1.527969 0.5691,-2.926954 0.637484,-3.108855 0.143839,-0.382611 1.88717,-0.451475 2.114574,-0.08353 0.08403,0.135958 -0.04989,1.467529 -0.297595,2.959041 -0.553463,3.332562 -1.286722,4.298987 -2.535841,3.342193 z m 3.968657,0.04495 c -0.398179,-0.231918 -0.463021,-0.692634 -0.463021,-3.28994 0,-2.715387 0.05167,-3.047901 0.511844,-3.29418 0.339961,-0.181941 0.739786,-0.187264 1.190625,-0.01585 0.674294,0.256365 0.678781,0.278169 0.678781,3.298019 0,2.734717 -0.05138,3.067446 -0.511773,3.31384 -0.625295,0.334647 -0.814239,0.333049 -1.406456,-0.01188 z m 3.175,0 c -0.398391,-0.232042 -0.463021,-0.693346 -0.463021,-3.304918 0,-2.937691 0.02019,-3.04443 0.627994,-3.321366 0.455848,-0.207701 0.782209,-0.203595 1.190625,0.01497 0.523407,0.280122 0.562631,0.511942 0.562631,3.325205 0,2.719041 -0.05163,3.051715 -0.511773,3.297983 -0.625295,0.334645 -0.814239,0.33305 -1.406456,-0.01188 z m 3.175,0 c -0.398179,-0.231918 -0.463021,-0.692634 -0.463021,-3.28994 0,-2.715387 0.05167,-3.047901 0.511844,-3.29418 0.339961,-0.181941 0.739786,-0.187264 1.190625,-0.01585 0.674577,0.256463 0.678784,0.276997 0.678784,3.313867 0,3.036755 -0.0042,3.057414 -0.678683,3.31384 -0.798285,0.303509 -0.665734,0.306475 -1.239549,-0.02774 z m 3.96893,0.100391 c -0.500404,-0.127498 -0.51988,-0.188103 -1.119103,-3.481861 -0.517898,-2.846735 -0.513273,-2.923118 0.192884,-3.186029 1.301787,-0.484669 1.613773,-0.04593 2.20545,3.101478 0.303488,1.61443 0.482082,3.043455 0.396875,3.175612 -0.209862,0.325479 -1.109358,0.535209 -1.676106,0.390802 z m -53.2966,-0.985139 c -1.033124,-0.46219 -1.670768,-1.626087 -1.670768,-3.049672 v -1.07147 h 7.14375 7.14375 v 1.178173 c 0,1.40393 -0.358793,2.284151 -1.143307,2.804838 -0.844679,0.560615 -10.275263,0.674153 -11.473425,0.138131 z m 134.045299,-0.111612 c -0.52473,-0.425006 -0.6415,-0.75175 -0.6209,-1.737323 0.0208,-0.996601 -0.0589,-1.213871 -0.44519,-1.213871 -0.48996,0 -0.61302,0.264453 -0.89158,1.916096 -0.18957,1.12395 -0.83416,1.436466 -2.36896,1.148535 -1.03385,-0.19395 -1.30791,-0.66766 -0.94243,-1.628947 0.36698,-0.965213 0.31923,-1.428472 -0.16641,-1.614834 -0.48609,-0.186526 -0.88939,0.32266 -0.89529,1.130329 -0.009,1.238597 -2.10234,1.93982 -3.02786,1.014297 -0.59645,-0.596445 -0.51455,-1.27833 0.26477,-2.204496 0.77513,-0.921191 0.77799,-1.953427 0.006,-2.100726 -0.27735,-0.05291 -1.79344,0.526397 -3.3691,1.287344 -2.74109,1.323785 -2.89255,1.365361 -3.50701,0.962758 -0.76238,-0.49953 -1.25742,-1.853083 -1.3116,-3.586221 -0.0604,-1.930546 0.90029,-3.184134 3.37873,-4.409043 1.73865,-0.85929 2.15754,-0.963883 3.43577,-0.857883 0.80063,0.06639 1.39439,0.02151 1.31945,-0.09974 -0.0749,-0.121253 -0.84039,-0.69863 -1.701,-1.283064 -0.86062,-0.584433 -1.68668,-1.290402 -1.83568,-1.568821 -0.97216,-1.816503 0.95067,-7.99756 3.06248,-9.844511 0.27669,-0.241981 1.1579,-0.615351 1.95827,-0.82971 0.80037,-0.214359 1.6563,-0.472811 1.90209,-0.574337 0.75062,-0.310052 0.9463,1.503035 0.25683,2.379552 -0.30403,0.386513 -0.4707,0.874273 -0.37975,1.111304 0.13854,0.361028 0.18979,0.347621 0.3525,-0.09222 0.10471,-0.283065 0.3823,-0.673937 0.61686,-0.868604 0.23457,-0.194667 0.42648,-0.670057 0.42648,-1.056422 0,-0.386365 0.18512,-0.96678 0.41138,-1.289812 0.38481,-0.549392 0.46019,-0.562097 1.16681,-0.196682 0.41549,0.214856 1.12334,0.836978 1.573,1.382493 0.96446,1.170058 1.05221,0.988653 0.22225,-0.459452 -0.68443,-1.194176 -0.51461,-1.732889 0.74008,-2.347717 0.62901,-0.308231 1.15706,-0.317946 3.11468,-0.05731 1.2965,0.172616 2.67187,0.476538 3.05639,0.67538 0.6609,0.341763 4.02862,4.117397 4.72114,5.292984 0.64601,1.096638 0.38126,2.062458 -1.3463,4.911138 -1.34189,2.212721 -1.91146,2.905713 -2.79863,3.405027 -1.60106,0.901096 -1.07329,1.199475 2.40613,1.360339 2.82928,0.130807 2.94481,0.160044 3.58825,0.908092 0.57266,0.665748 0.64886,0.965849 0.54949,2.164022 -0.14152,1.706634 -1.16938,3.376353 -2.45616,3.989978 -0.75563,0.360336 -1.07971,0.38096 -1.9393,0.123422 -2.33868,-0.700688 -3.04718,-0.0861 -1.98674,1.723404 0.58845,1.004117 0.62085,1.197387 0.30772,1.835533 -0.7743,1.577983 -1.87399,1.501135 -2.53319,-0.177025 -0.35777,-0.910822 -0.52339,-1.059783 -1.10326,-0.992346 -0.61289,0.07128 -0.69047,0.207161 -0.76291,1.336117 -0.0482,0.750626 -0.20801,1.258226 -0.39689,1.260382 -0.17393,0.0021 -0.56119,0.06941 -0.86058,0.149826 -0.32905,0.08838 -0.79997,-0.06083 -1.19063,-0.377243 z m -2.36606,-7.162888 c 0,-1.039077 -0.24437,-1.60914 -0.68977,-1.60914 -0.43705,0 -0.49395,1.123431 -0.0947,1.869477 0.40188,0.750903 0.78445,0.623937 0.78445,-0.260337 z m 1.53257,-0.815152 c -0.10804,-0.924055 -0.8489,-0.855731 -0.95699,0.08826 -0.0472,0.412475 -0.009,0.948256 0.085,1.190625 0.15326,0.395139 0.21113,0.386019 0.56011,-0.08826 0.21406,-0.29091 0.35438,-0.826691 0.31184,-1.190625 z m -3.53781,-6.109121 c 0.74723,-0.888033 0.95203,-2.775993 0.36482,-3.363202 -0.41213,-0.412131 -1.6026,-0.408234 -2.01744,0.0066 -0.25575,0.25575 -0.43355,0.25575 -0.84307,0 -0.66127,-0.412964 -1.65121,-0.416136 -2.06074,-0.0066 -0.17463,0.174625 -0.3175,0.851358 -0.3175,1.50385 0,1.078429 0.12127,1.303243 1.33316,2.471346 l 1.33316,1.284997 0.76265,-0.543053 c 0.41946,-0.29868 1.06969,-0.907952 1.44496,-1.353938 z m 7.49289,1.183444 c 1.7561,-1.339443 2.43085,-3.332703 1.4828,-4.38029 -0.5098,-0.563323 -1.20514,-0.618904 -1.94696,-0.155627 -0.41833,0.261249 -0.63283,0.261249 -1.05115,0 -0.81599,-0.509591 -1.53817,-0.390373 -2.01154,0.332062 -0.67666,1.032724 -0.29268,2.344678 1.09131,3.728664 0.64201,0.642013 1.24848,1.167296 1.34772,1.167296 0.0992,0 0.58876,-0.311447 1.08782,-0.692105 z m 33.75262,13.118535 c -0.90081,-0.121036 -1.88269,-0.351108 -2.18194,-0.511262 -0.9501,-0.508474 -1.77466,-2.554714 -2.25885,-5.605556 -0.12892,-0.812319 -0.42758,-1.167736 -1.87288,-2.228842 -1.84412,-1.353902 -2.7641,-2.555259 -2.7641,-3.609496 0,-0.949147 0.5226,-2.367199 1.11358,-3.021664 0.50739,-0.5619 0.50516,-0.577798 -0.30676,-2.18622 -0.91279,-1.808212 -1.23051,-3.460486 -0.95146,-4.947951 0.2341,-1.24785 2.94782,-4.139485 5.4363,-5.792709 1.90646,-1.266558 4.50821,-2.249813 5.95313,-2.249813 3.12984,0 9.76564,4.210538 11.11403,7.052057 0.63926,1.347138 0.42175,3.956847 -0.50196,6.022589 -0.69763,1.560138 -0.69821,1.567092 -0.17852,2.120278 0.63237,0.67313 1.34041,2.304149 1.34041,3.087745 0,1.014055 -1.02352,2.269992 -2.7854,3.4179 -1.79706,1.170835 -1.82934,1.227405 -2.11083,3.699432 -0.17804,1.563528 -0.871,3.382467 -1.47692,3.876736 -0.94694,0.772443 -4.9192,1.232651 -7.56783,0.876776 z m 0.0503,-4.753512 c 0,-2.07257 -0.0415,-2.248959 -0.52916,-2.248959 -0.4834,0 -0.53581,0.201967 -0.60591,2.334895 -0.0756,2.300642 -0.0678,2.333633 0.52917,2.248959 0.57722,-0.08187 0.6059,-0.192403 0.6059,-2.334895 z m 2.11667,0 c 0,-2.130815 -0.0313,-2.253402 -0.59531,-2.333507 -0.58011,-0.08239 -0.59532,-0.02277 -0.59532,2.333507 0,2.356273 0.0152,2.415894 0.59532,2.333506 0.56403,-0.08011 0.59531,-0.202692 0.59531,-2.333506 z m 2.19694,0.537329 c 0.10174,-2.169243 -0.0827,-2.91858 -0.71847,-2.91858 -0.64565,0 -0.81701,0.499449 -0.81701,2.381251 0,1.956612 0.18186,2.43064 0.89357,2.329092 0.49636,-0.07082 0.57096,-0.279066 0.64191,-1.791763 z m 1.9041,-0.537329 c 0,-2.160001 -0.0465,-2.381251 -0.50086,-2.381251 -0.66701,0 -0.82206,0.494795 -0.82206,2.623376 0,1.916377 0.0873,2.139125 0.83785,2.139125 0.43444,0 0.48507,-0.248547 0.48507,-2.38125 z m -4.38251,-4.828647 c -0.24285,-0.782195 -1.14366,-2.050521 -1.45634,-2.050521 -0.48249,0 -0.23587,1.030447 0.43841,1.831782 0.80827,0.960575 1.27971,1.061882 1.01793,0.218739 z m 2.44698,-0.602996 c 0.3179,-0.563684 0.50724,-1.139383 0.42075,-1.279332 -0.2294,-0.371173 -1.66022,1.330669 -1.66022,1.974697 0,0.806519 0.57408,0.484449 1.23947,-0.695365 z m -3.67094,-4.364725 c 0.85951,-0.524028 1.63772,-1.877823 1.63772,-2.849014 0,-0.270351 -0.28313,-0.757528 -0.62917,-1.082616 -1.14859,-1.079053 -5.45843,-1.086483 -6.53365,-0.01127 -0.98777,0.987768 -0.4131,3.290017 1.01458,4.064671 1.08293,0.587587 3.45193,0.52363 4.51052,-0.121774 z m 8.96218,-0.615291 c 0.77896,-0.849988 0.89548,-1.146476 0.8261,-2.101976 -0.0706,-0.972925 -0.19688,-1.170414 -1.00681,-1.575017 -0.59653,-0.298 -1.538,-0.46261 -2.64583,-0.46261 -1.10784,0 -2.04931,0.16461 -2.64584,0.46261 -0.81034,0.404813 -0.93614,0.601834 -1.0069,1.57698 -0.16086,2.216695 1.20454,3.336005 3.88497,3.184781 1.55837,-0.08792 1.7568,-0.170889 2.59431,-1.084768 z m -182.213997,7.942095 c 0,-1.085738 -0.07397,-1.197588 -1.392448,-2.105662 -1.572268,-1.082863 -3.07518,-2.919532 -3.961482,-4.841221 -0.502005,-1.088452 -0.599194,-1.74979 -0.599194,-4.077304 0,-2.46038 0.0811,-2.951163 0.709098,-4.29103 1.91871,-4.093686 6.3905,-6.954069 11.377463,-7.277599 4.344575,-0.281855 8.320862,1.109761 11.09363703,3.882537 5.07759797,5.077597 4.35828597,12.428206 -1.64762103,16.836947 -1.164701,0.85497 -1.291953,1.050401 -1.291953,1.98418 v 1.035798 h -7.14375 -7.14375 z m 7.14375,-1.648872 c 0,-0.786085 -0.432246,-1.702398 -0.803059,-1.702398 -0.366388,0 -0.315553,1.68597 0.06223,2.06375 0.496301,0.496302 0.740833,0.377028 0.740833,-0.361352 z m 1.330221,0.136038 c 0.384157,-0.717807 0.226658,-1.706145 -0.271888,-1.706145 -0.27776,0 -0.421293,0.33749 -0.478233,1.12448 -0.08727,1.206158 0.26833,1.481899 0.750121,0.581665 z m -4.411852,-5.627269 c 1.799071,-1.372219 2.3297,-4.301141 1.15905,-6.397627 -0.801555,-1.43548 -2.646219,-2.372896 -4.164621,-2.116364 -2.637367,0.445581 -4.312257,3.519879 -3.401797,6.244071 0.941282,2.816414 4.184504,3.965382 6.407368,2.26992 z m 10.331294,0.509615 c 0.485465,-0.202841 1.22283,-0.81478 1.638586,-1.359865 0.622935,-0.816708 0.770551,-1.298758 0.83908103,-2.740053 0.110059,-2.314656 -0.57614603,-3.591956 -2.42091103,-4.506278 -1.187318,-0.588471 -1.391936,-0.614119 -2.513542,-0.315059 -3.973297,1.059423 -4.676045,6.659544 -1.096298,8.736272 1.09538,0.635466 2.322076,0.699331 3.553084,0.184983 z m 27.685966,6.194746 c -0.120984,-0.07557 -0.262165,-1.706404 -0.313738,-3.624069 -0.129572,-4.818139 -0.532516,-5.334972 -4.591682,-5.889522 -1.164167,-0.159045 -2.49132,-0.411593 -2.949226,-0.561218 -2.429256,-0.793782 -1.258803,-4.483343 2.537142,-7.997719 2.85994,-2.647798 4.679823,-3.474962 8.872882,-4.032851 2.127216,-0.283028 5.954652,-0.173866 7.849947,0.223888 4.929563,1.034535 10.785181,6.671982 10.496489,10.105412 -0.119748,1.424178 -0.901785,1.88983 -3.730347,2.221183 -1.27771,0.149678 -2.707566,0.454576 -3.177453,0.677552 -1.449165,0.687674 -1.625055,1.219666 -1.730589,5.234212 -0.0526,2.000911 -0.173511,3.652355 -0.268698,3.669876 -0.597117,0.109916 -12.81621,0.08477 -12.994727,-0.02674 z m 8.482563,-4.527505 c 0.468365,-1.711018 0.347363,-1.978812 -0.767686,-1.698953 -1.33431,0.33489 -1.409872,0.583299 -0.649219,2.13424 0.384789,0.784567 0.76395,1.362152 0.842579,1.28352 0.07863,-0.07863 0.337079,-0.852093 0.574326,-1.718807 z m -4.206434,-5.049873 c 0.572474,-0.171517 1.280182,-0.616097 1.572689,-0.987956 0.462468,-0.587932 0.509818,-0.918198 0.363085,-2.532421 -0.244398,-2.688684 -0.497933,-3.173938 -1.994736,-3.817846 -1.593633,-0.685561 -1.995657,-0.686781 -3.80043,-0.01153 -1.559856,0.583617 -3.201532,2.131826 -3.493331,3.294441 -0.319206,1.271821 0.85498,3.01035 2.66909,3.951922 0.942309,0.489083 3.227904,0.539536 4.683633,0.103388 z m 9.547807,-0.417109 c 0.4454,-0.401784 0.496351,-0.729894 0.392817,-2.529571 -0.103317,-1.795884 -0.210685,-2.159623 -0.816205,-2.765142 -0.998665,-0.998668 -3.56838,-1.163356 -5.196007,-0.333004 l -1.133935,0.57849 0.178152,1.342969 c 0.287464,2.166989 1.348549,3.66435 2.958637,4.175094 1.059746,0.336167 3.003489,0.08419 3.616541,-0.468836 z"
       style="fill:#000000;stroke-width:0.26458338" />
  </g>
  <g
     style="display:none"
     transform="translate(-4.72545,-102.42213)"
     id="layer1">
    <path
       id="path837"
       d="m 19.258456,133.63801 c -0.721175,-0.35874 -1.06203,-0.37305 -2.600797,-0.10918 -3.191745,0.54732 -3.769121,-0.21436 -3.774736,-4.97966 -0.0038,-3.50746 -0.120753,-4.06784 -0.847306,-4.07118 -1.707542,-0.008 -5.2659874,-2.69163 -6.241992,-4.70779 -0.5114452,-1.05651 -0.5480541,-1.40366 -0.4057827,-3.84814 0.1842765,-3.16644 0.9145154,-6.15661 2.0024001,-8.19934 0.7495033,-1.40737 1.326172,-1.90048 2.7164026,-2.32289 0.612361,-0.18605 0.618177,-0.17673 0.18953,0.30375 -0.243226,0.27266 -0.4422303,0.55828 -0.4422303,0.63473 0,0.0764 0.8563123,0.78353 1.9029083,1.57126 1.046605,0.78774 1.845143,1.52573 1.774523,1.63999 -0.07058,0.11426 -0.597318,0.28274 -1.170452,0.37438 l -1.042069,0.16664 1.019987,1.10654 c 0.560986,0.6086 1.436065,1.68572 1.944626,2.39359 0.508551,0.70787 0.958985,1.28704 1.000952,1.28704 0.04193,0 -0.308182,-0.8813 -0.778118,-1.95844 l -0.85443,-1.95845 0.691242,-0.17684 c 0.380176,-0.0973 1.012193,-0.24365 1.404461,-0.32529 l 0.713229,-0.14844 -1.756033,-1.94904 -1.756042,-1.94903 1.370622,-0.84419 c 1.135496,-0.69936 1.318397,-0.90713 1.066156,-1.21105 -0.200054,-0.24105 -0.219032,-0.45229 -0.05539,-0.61598 0.407654,-0.40766 6.349937,-1.04338 8.8015,-0.94162 2.203095,0.0914 2.325768,0.12911 3.916893,1.20254 2.083765,1.40577 4.519044,3.90107 5.692534,5.83283 1.031897,1.69869 2.393962,5.23489 2.393962,6.21524 0,1.10345 -1.482541,3.50879 -3.504721,5.68622 -2.349817,2.53024 -3.78934,3.5009 -5.199828,3.50623 -0.563488,0.002 -1.149488,0.0874 -1.302228,0.18952 -0.164458,0.10996 -0.342144,1.56585 -0.435705,3.57004 -0.173437,3.71516 -0.317551,4.08048 -1.868668,4.737 -1.094217,0.46313 -3.540145,0.40902 -4.565433,-0.10099 z m -2.202483,-4.8616 c 0,-1.97951 -0.03964,-2.14798 -0.5054,-2.14798 -0.461694,0 -0.51175,0.19291 -0.578703,2.23006 -0.07221,2.19734 -0.06475,2.22885 0.505409,2.14798 0.551302,-0.0782 0.578694,-0.18376 0.578694,-2.23006 z m 2.021626,0 c 0,-1.97951 -0.03964,-2.14798 -0.505409,-2.14798 -0.461684,0 -0.511741,0.19291 -0.578693,2.23006 -0.07221,2.19734 -0.06476,2.22885 0.505408,2.14798 0.551302,-0.0782 0.578694,-0.18376 0.578694,-2.23006 z m 2.021626,0 c 0,-1.97951 -0.03964,-2.14798 -0.505409,-2.14798 -0.461694,0 -0.51175,0.19291 -0.578693,2.23006 -0.07221,2.19734 -0.06476,2.22885 0.505399,2.14798 0.551302,-0.0782 0.578703,-0.18376 0.578703,-2.23006 z m 2.08643,0.25271 c 0.06924,-2.02594 -0.14869,-2.69438 -0.797411,-2.44543 -0.32756,0.12569 -0.40456,0.56896 -0.40456,2.32872 0,2.10943 0.01671,2.17111 0.568579,2.09273 0.525027,-0.0746 0.573546,-0.22593 0.633392,-1.97602 z m -7.918991,-7.82897 c 2.435872,-0.3989 3.669428,-2.03385 2.400762,-3.18199 -0.425152,-0.38475 -1.024676,-0.49423 -3.134095,-0.57232 -2.79112,-0.10331 -4.264463,0.19446 -4.6649733,0.94281 -0.5298596,0.99006 1.0065773,2.52497 2.8233543,2.82055 0.593517,0.0966 1.079126,0.18915 1.079126,0.20574 0,0.0166 0.673125,-0.08 1.495826,-0.21479 z m 12.293786,-0.91361 c 2.530379,-0.74366 3.773237,-2.1406 3.773237,-4.24103 0,-1.31283 -0.376222,-1.79259 -1.717026,-2.18957 -0.777373,-0.23016 -1.449227,-0.1658 -3.956969,0.37902 -1.661345,0.36095 -3.365917,0.85793 -3.787955,1.10441 -0.999166,0.58355 -1.527822,1.53874 -1.31685,2.37932 0.227953,0.90826 1.375264,2.21268 2.300724,2.61578 1.051649,0.45807 3.052483,0.43768 4.704839,-0.048 z"
       style="fill:#000000;stroke-width:0.25270292" />
  </g>
  <g
     id="layer3">
    <path
       id="path837-3-6"
       d="M 6.5579365,31.321828 C 5.9506595,30.896477 5.8761037,30.577799 5.8761037,28.407376 v -2.436875 h -1.09734 c -0.8038122,0 -1.3372289,-0.239878 -1.9940977,-0.896761 L 1.8879082,24.176983 V 13.24237 c 0,-6.912955 0.116182,-11.1517069 0.3158712,-11.5248458 0.7784888,-1.45461684 1.3458324,-1.5169284 13.8103486,-1.5169284 12.732223,0 12.980993,0.0316539 13.765037,1.7524461 0.219053,0.480787 0.332927,4.3923047 0.332927,11.4366071 v 10.705925 l -0.716943,0.833496 c -0.493669,0.573918 -1.126304,0.889756 -2.031422,1.014159 l -1.314467,0.180662 0.0092,2.252307 c 0.0116,2.706703 -0.479001,3.423206 -2.34131,3.423206 -1.784762,0 -2.19504,-0.649599 -2.19504,-3.475487 0,-1.36442 -0.128924,-2.353416 -0.306781,-2.353416 -0.177252,0 -0.30678,0.971475 -0.30678,2.300878 0,1.891841 -0.109109,2.409964 -0.613573,2.914452 -0.740631,0.74063 -2.348696,0.80678 -3.306362,0.135997 -0.607289,-0.425351 -0.681834,-0.744029 -0.681834,-2.914452 0,-1.420063 -0.128008,-2.436875 -0.306792,-2.436875 -0.177253,0 -0.30678,0.971475 -0.30678,2.300878 0,1.891841 -0.109109,2.409964 -0.613573,2.914452 -0.740632,0.74063 -2.348697,0.80678 -3.306363,0.135997 -0.607277,-0.425351 -0.681833,-0.744029 -0.681833,-2.914452 0,-1.420063 -0.128009,-2.436875 -0.30678,-2.436875 -0.178784,0 -0.306792,1.016812 -0.306792,2.436875 0,2.170423 -0.07456,2.489101 -0.6818332,2.914452 -0.375006,0.262662 -1.1035781,0.477576 -1.6190458,0.477576 -0.5154797,0 -1.2440519,-0.214914 -1.6190576,-0.477576 z M 19.067847,19.76906 c 0,-2.693045 -0.06029,-3.070428 -0.428736,-2.684361 -0.909513,0.952971 -4.786605,5.556966 -4.786605,5.684035 0,0.07363 1.173449,0.133911 2.607671,0.133911 h 2.60767 z m -7.209439,-2.446036 c 0.506192,-0.369174 1.127429,-0.951 1.380525,-1.292959 C 15.0406,13.595855 14.809466,9.1099555 12.635331,4.3150029 11.905044,2.7043636 11.623656,2.3789613 10.805837,2.1993431 9.4929578,1.9109869 8.5262471,2.5955329 7.5636062,4.4952124 5.4571876,8.6520225 5.2988231,15.523942 7.2595039,17.690481 c 0.9524954,1.05249 2.8609641,0.900004 4.5989041,-0.367457 z m 12.758833,-4.016882 c 1.346574,-0.90746 1.722021,-1.973401 1.249988,-3.5488954 C 25.492131,8.5052644 23.776302,5.7659904 22.187101,3.8820105 21.312096,2.844698 21.26102,2.8266446 20.681861,3.350078 c -1.846191,1.6685331 -1.746985,8.848718 0.141935,10.272341 0.810513,0.61086 2.644577,0.457944 3.793445,-0.316277 z"
       style="display:inline;fill:#000000;stroke-width:0.30678463" />
  </g>
</svg>
