<?xml version="1.0" encoding="UTF-8" standalone="no"?>
<!-- Created with Inkscape (http://www.inkscape.org/) -->

<svg
   xmlns:dc="http://purl.org/dc/elements/1.1/"
   xmlns:cc="http://creativecommons.org/ns#"
   xmlns:rdf="http://www.w3.org/1999/02/22-rdf-syntax-ns#"
   xmlns:svg="http://www.w3.org/2000/svg"
   xmlns="http://www.w3.org/2000/svg"
   xmlns:sodipodi="http://sodipodi.sourceforge.net/DTD/sodipodi-0.dtd"
   xmlns:inkscape="http://www.inkscape.org/namespaces/inkscape"
   width="59.203739mm"
   height="59.180656mm"
   viewBox="0 0 59.203739 59.180656"
   version="1.1"
   id="svg8"
   inkscape:version="0.92.3 (2405546, 2018-03-11)"
   sodipodi:docname="Icon.svg"
   inkscape:export-filename="/home/diego/Projects/Ludwig/Graphics/icon-w.png"
   inkscape:export-xdpi="46.272099"
   inkscape:export-ydpi="46.272099">
  <defs
     id="defs2" />
  <sodipodi:namedview
     id="base"
     pagecolor="#ffffff"
     bordercolor="#666666"
     borderopacity="1.0"
     inkscape:pageopacity="0.0"
     inkscape:pageshadow="2"
     inkscape:zoom="0.35"
     inkscape:cx="173.72267"
     inkscape:cy="-68.651755"
     inkscape:document-units="mm"
     inkscape:current-layer="g849"
     showgrid="false"
     fit-margin-top="0"
     fit-margin-left="0"
     fit-margin-right="0"
     fit-margin-bottom="0"
     inkscape:window-width="1377"
     inkscape:window-height="836"
     inkscape:window-x="63"
     inkscape:window-y="27"
     inkscape:window-maximized="1" />
  <metadata
     id="metadata5">
    <rdf:RDF>
      <cc:Work
         rdf:about="">
        <dc:format>image/svg+xml</dc:format>
        <dc:type
           rdf:resource="http://purl.org/dc/dcmitype/StillImage" />
        <dc:title></dc:title>
      </cc:Work>
    </rdf:RDF>
  </metadata>
  <g
     inkscape:label="Layer 1"
     inkscape:groupmode="layer"
     id="layer1"
     transform="translate(-90.485281,-2.6969)"
     sodipodi:insensitive="true"
     style="display:none">
    <path
       style="fill:#000000;stroke-width:0.26458332"
       d="M 113.97872,61.415407 C 99.030241,58.112327 88.937105,44.123117 90.680819,29.124217 92.784488,11.029098 110.23301,-0.93326786 127.7707,3.6961121 c 10.93843,2.887387 19.44752,12.0540459 21.54881,23.2140549 0.65942,3.50221 0.40658,9.92159 -0.5223,13.26049 -2.81246,10.10962 -10.73982,18.02339 -20.89941,20.8636 -3.35705,0.9385 -10.51027,1.13438 -13.91908,0.38115 z m 18.86036,-4.42912 c 4.6901,-2.37207 9.23456,-6.84436 11.69718,-11.51143 0.96254,-1.82418 1.11031,-2.34256 0.66775,-2.34256 -0.14307,0 -0.57627,0.62507 -0.96267,1.38906 -2.44262,4.82954 -7.13018,9.51802 -11.94023,11.94259 -0.76398,0.3851 -1.38906,0.81723 -1.38906,0.9603 0,0.41218 0.44698,0.31059 1.92703,-0.43796 z m 0.99445,-2.25808 c 2.99076,-1.82911 7.06525,-5.93775 8.82891,-8.90291 0.95731,-1.6095 1.22151,-2.26236 1.00366,-2.48021 -0.21784,-0.21784 -0.42057,-0.0681 -0.77017,0.56898 -2.5767,4.69538 -6.62002,8.82962 -10.59482,10.83304 -0.61846,0.31173 -1.12447,0.74295 -1.12447,0.95827 0,0.59119 0.23201,0.50586 2.65689,-0.97717 z m -1.35537,-0.78337 c 3.86117,-2.16806 7.21875,-5.57469 9.39296,-9.53017 1.04614,-1.90323 1.09758,-2.07641 0.61646,-2.07549 -0.18191,2.6e-4 -0.67534,0.66013 -1.09653,1.46619 -1.85254,3.54539 -5.41523,7.25039 -8.95764,9.31547 -1.91222,1.11475 -2.47927,1.65312 -1.74119,1.65312 0.17014,0 0.97381,-0.3731 1.78594,-0.82912 z m 2.64166,-3.49733 c 2.65521,-2.09997 6.22119,-6.95434 6.7828,-9.23344 0.33756,-1.36984 -0.37253,-0.75387 -1.32979,1.15352 -0.51924,1.03462 -1.31875,2.43361 -1.7767,3.10886 -1.23493,1.82094 -4.3654,4.81963 -6.23818,5.97557 -0.90524,0.55875 -1.6459,1.0982 -1.6459,1.19879 0,0.77668 1.30163,0.0951 4.20777,-2.2033 z m -2.79889,0.45468 c 1.04413,-0.67427 2.68443,-2.02473 3.64511,-3.00103 1.78623,-1.81526 4.47102,-5.82413 4.47102,-6.67603 0,-0.92039 -0.51101,-0.45375 -1.44086,1.31578 -1.75627,3.34219 -4.82084,6.54362 -7.8819,8.23389 -0.68913,0.38053 -1.25467,0.8407 -1.25677,1.0226 -0.006,0.5593 0.49093,0.37856 2.4634,-0.89521 z m 0.14668,-1.79332 c 2.64038,-1.93822 5.43784,-5.40578 6.65851,-8.2535 0.6161,-1.43729 0.61503,-1.42724 0.15241,-1.42724 -0.20063,0 -0.52245,0.38695 -0.71517,0.8599 -1.14243,2.80361 -3.96939,6.34234 -6.62252,8.28991 -1.25126,0.91851 -1.60984,1.43352 -0.99809,1.43352 0.16241,0 0.84859,-0.40616 1.52486,-0.90259 z m -0.79614,-1.36269 c 0.88308,-0.66383 2.10201,-1.76515 2.70873,-2.4474 1.21603,-1.3674 2.88185,-3.83589 2.88185,-4.27044 0,-0.65386 -0.57858,-0.17463 -1.46822,1.21612 -1.24641,1.94844 -3.2499,4.05019 -5.02864,5.27525 -0.78343,0.53957 -1.36151,1.08282 -1.28462,1.20723 0.24247,0.39232 0.54367,0.25748 2.1909,-0.98076 z m -2.27551,-0.28687 c 2.79169,-1.74619 6.38303,-5.65133 5.7653,-6.26906 -0.1494,-0.1494 -0.31076,-0.22004 -0.35857,-0.15698 -0.0478,0.0631 -0.52596,0.7258 -1.06255,1.47275 -1.17879,1.64093 -2.63205,2.98403 -4.57054,4.22406 -0.79625,0.50936 -1.37775,1.03932 -1.29223,1.1777 0.21677,0.35075 0.26238,0.33728 1.51859,-0.44847 z m 1.03855,-2.5758 c 1.35227,-1.10155 3.23821,-3.32478 3.88468,-4.57943 0.22513,-0.43693 0.22086,-0.62721 -0.0174,-0.77445 -0.17371,-0.10735 -0.36629,-0.0438 -0.42795,0.14118 -0.27211,0.81631 -2.6918,3.67278 -4.02015,4.74582 -0.80037,0.64653 -1.4949,1.27689 -1.5434,1.4008 -0.22796,0.58228 0.83846,0.11342 2.12419,-0.93392 z m -1.19248,-0.73128 c 1.53464,-1.18396 3.33472,-3.27988 3.99764,-4.65463 0.44711,-0.9272 0.1837,-1.57907 -0.30813,-0.76255 -1.08963,1.80895 -2.7717,3.77726 -4.12817,4.83065 -0.86962,0.67532 -1.5178,1.33032 -1.4404,1.45556 0.22342,0.3615 0.37483,0.29148 1.87906,-0.86903 z m -0.78141,-1.25397 c 1.40725,-1.11237 2.75516,-2.68586 3.2714,-3.81889 0.37873,-0.83123 0.0531,-1.34157 -0.38798,-0.60808 -0.82129,1.36572 -2.43169,3.17345 -3.6121,4.05471 -0.72479,0.54111 -1.3178,1.07748 -1.3178,1.19194 0,0.47577 0.82632,0.14479 2.04648,-0.81968 z m -1.42871,-0.58576 c 0.68071,-0.45088 1.6642,-1.31408 2.18553,-1.91823 1.22814,-1.42321 2.31318,-3.52549 1.93896,-3.75677 -0.3402,-0.21026 -0.31847,-0.23395 -0.98248,1.07084 -0.77847,1.5297 -2.26181,3.15603 -3.76973,4.13313 -0.72214,0.46793 -1.31297,0.94979 -1.31297,1.0708 0,0.43094 0.72103,0.2081 1.94069,-0.59977 z m -2.40852,-0.71303 c 2.06878,-1.01846 3.93351,-2.92336 4.9181,-5.02406 0.62095,-1.32482 0.7091,-1.84184 0.7091,-4.15874 0,-2.3605 -0.0827,-2.82481 -0.76641,-4.30545 -1.0104,-2.18795 -3.48188,-4.53883 -5.632,-5.357166 -2.11466,-0.804849 -5.18984,-0.807559 -7.29432,-0.0064 -4.10862,1.564056 -6.61425,5.228566 -6.61126,9.669046 0.002,2.87264 0.70859,4.68301 2.64392,6.77339 2.36178,2.55101 4.52979,3.44952 8.03634,3.33061 1.93931,-0.0658 2.54024,-0.20427 3.99653,-0.9212 z m -5.24459,-8.62046 c -0.31709,-0.82631 0.004,-1.35609 0.82125,-1.35609 0.70153,0 0.79013,0.089 0.79013,0.79375 0,0.66963 -0.11402,0.80687 -0.72911,0.87762 -0.46529,0.0535 -0.78453,-0.0606 -0.88227,-0.31528 z m -8.38904,-7.25877 c 0.60897,-0.86353 1.73323,-1.98423 2.56563,-2.55752 1.46767,-1.010826 1.81451,-1.461674 1.12449,-1.461674 -1.09596,0 -5.19908,4.118254 -5.19908,5.218244 0,0.66527 0.44175,0.31425 1.50896,-1.19905 z m -0.98973,-0.88489 c 0.91517,-1.34858 2.79152,-2.937682 4.47211,-3.787484 0.60846,-0.307673 0.80438,-0.536103 0.61889,-0.721596 -0.64356,-0.64356 -4.6462,2.403372 -6.12898,4.66556 -0.47235,0.72064 -0.49753,1.2166 -0.061,1.20031 0.10055,-0.004 0.59507,-0.61431 1.09893,-1.35679 z m -1.18806,-0.86171 c 0.68604,-0.93445 2.00698,-2.255385 2.94143,-2.94143 1.61362,-1.184678 2.04701,-1.712414 1.40627,-1.712414 -1.13708,0 -6.06012,4.928584 -6.06012,6.066944 0,0.6338 0.53186,0.19491 1.71242,-1.4131 z m -0.78243,-1.191949 c 1.03331,-1.315235 2.91158,-2.936205 4.62405,-3.990608 0.27044,-0.166512 0.309,-0.328671 0.1225,-0.515163 -0.70975,-0.709753 -6.85478,4.9702 -6.31757,5.83943 0.22384,0.36218 0.26844,0.32431 1.57102,-1.333659 z m -5.11269,-0.617624 c 0.98611,-1.862751 4.77354,-5.833249 6.367,-6.674751 0.88477,-0.467244 1.35265,-1.196603 0.76761,-1.196603 -0.47025,0 -3.93056,2.627448 -5.01976,3.811563 -1.09009,1.185077 -3.75287,5.098064 -3.75295,5.515004 -1e-5,0.10914 0.17158,0.19843 0.38133,0.19843 0.20975,0 0.77529,-0.74414 1.25677,-1.653643 z m 1.27229,0.899353 c 0,-0.12382 0.6019,-1.020217 1.33755,-1.991995 1.3803,-1.823329 3.60805,-3.775908 5.34317,-4.683171 0.9907,-0.518018 1.30923,-1.037208 0.63634,-1.037208 -0.6291,0 -3.63482,2.103904 -4.98272,3.48774 -1.25937,1.292945 -3.12809,3.830579 -3.12809,4.247794 0,0.11108 0.17859,0.20197 0.39687,0.20197 0.21828,0 0.39688,-0.10131 0.39688,-0.22513 z m 2.7564,-1.273459 c 1.25955,-1.529967 3.6545,-3.567149 5.14461,-4.376088 0.83946,-0.455721 1.11042,-1.004494 0.49598,-1.004494 -0.52296,0 -3.1049,1.792947 -4.52514,3.142333 -1.32804,1.261787 -2.81352,3.116027 -2.81352,3.511948 0,0.53503 0.5465,0.12511 1.69807,-1.273699 z m -5.04759,-0.684228 c 1.66954,-2.804102 5.13836,-6.101685 7.87991,-7.490935 0.70974,-0.359654 1.29044,-0.770973 1.29044,-0.914043 0,-0.972827 -3.42672,1.068565 -6.13152,3.652717 -2.73372,2.61178 -4.927,5.876741 -3.94779,5.876741 0.1317,0 0.54073,-0.506016 0.90896,-1.12448 z m -1.43408,-0.157077 c 1.38734,-2.719404 5.54514,-6.877207 8.26454,-8.264544 0.55934,-0.285351 1.01698,-0.694995 1.01698,-0.910318 0,-0.560023 -0.0984,-0.52324 -2.20263,0.823553 -2.52781,1.617884 -5.46142,4.53823 -7.07051,7.038538 -0.720607,1.119734 -1.310198,2.101999 -1.310198,2.182812 0,0.08081 0.176174,0.146932 0.391498,0.146932 0.215323,0 0.62497,-0.457637 0.91032,-1.016973 z m -0.473,-1.826615 c 2.07565,-3.206737 5.74268,-6.49968 9.19068,-8.253108 0.76865,-0.390883 1.06754,-0.676266 0.89206,-0.851745 -0.63182,-0.6318219 -6.22791,3.169841 -8.35615,5.676687 -1.58172,1.863107 -3.349158,4.428074 -3.349158,4.860409 0,0.738966 0.506693,0.291707 1.622568,-1.432243 z m -3.328721,-6.83e-4 c 2.611869,-4.525251 6.245401,-8.058288 10.834281,-10.5346179 2.24966,-1.214001 2.07386,-1.078923 1.85822,-1.427844 -0.2743,-0.44383 -4.09841,1.704083 -6.57716,3.6942329 -1.1781,0.945886 -2.841882,2.553229 -3.697286,3.571875 -1.576859,1.877782 -3.622319,5.06134 -3.622319,5.637786 0,0.663031 0.50694,0.266731 1.204264,-0.941432 z m 2.201054,-0.736123 c 2.154347,-3.276762 5.336967,-6.263103 8.679647,-8.144365 1.41977,-0.7990449 2.08131,-1.5044069 1.41095,-1.5044069 -0.53996,0 -3.80842,2.0675579 -5.58492,3.5328989 -3.13361,2.584747 -7.056266,7.844184 -5.850444,7.844184 0.114657,0 0.719802,-0.77774 1.344767,-1.728311 z"
       id="path826"
       inkscape:connector-curvature="0" />
  </g>
  <g
     transform="translate(-90.485281,-2.6969)"
     id="g849"
     inkscape:groupmode="layer"
     inkscape:label="Invert">
    <path
       inkscape:connector-curvature="0"
       id="path847"
       d="M 113.97872,61.415407 C 99.030241,58.112327 88.937105,44.123117 90.680819,29.124217 92.784488,11.029098 110.23301,-0.93326786 127.7707,3.6961121 c 10.93843,2.887387 19.44752,12.0540459 21.54881,23.2140549 0.65942,3.50221 0.40658,9.92159 -0.5223,13.26049 -2.81246,10.10962 -10.73982,18.02339 -20.89941,20.8636 -3.35705,0.9385 -10.51027,1.13438 -13.91908,0.38115 z m 18.86036,-4.42912 c 4.6901,-2.37207 9.23456,-6.84436 11.69718,-11.51143 0.96254,-1.82418 1.11031,-2.34256 0.66775,-2.34256 -0.14307,0 -0.57627,0.62507 -0.96267,1.38906 -2.44262,4.82954 -7.13018,9.51802 -11.94023,11.94259 -0.76398,0.3851 -1.38906,0.81723 -1.38906,0.9603 0,0.41218 0.44698,0.31059 1.92703,-0.43796 z m 0.99445,-2.25808 c 2.99076,-1.82911 7.06525,-5.93775 8.82891,-8.90291 0.95731,-1.6095 1.22151,-2.26236 1.00366,-2.48021 -0.21784,-0.21784 -0.42057,-0.0681 -0.77017,0.56898 -2.5767,4.69538 -6.62002,8.82962 -10.59482,10.83304 -0.61846,0.31173 -1.12447,0.74295 -1.12447,0.95827 0,0.59119 0.23201,0.50586 2.65689,-0.97717 z m -1.35537,-0.78337 c 3.86117,-2.16806 7.21875,-5.57469 9.39296,-9.53017 1.04614,-1.90323 1.09758,-2.07641 0.61646,-2.07549 -0.18191,2.6e-4 -0.67534,0.66013 -1.09653,1.46619 -1.85254,3.54539 -5.41523,7.25039 -8.95764,9.31547 -1.91222,1.11475 -2.47927,1.65312 -1.74119,1.65312 0.17014,0 0.97381,-0.3731 1.78594,-0.82912 z m 2.64166,-3.49733 c 2.65521,-2.09997 6.22119,-6.95434 6.7828,-9.23344 0.33756,-1.36984 -0.37253,-0.75387 -1.32979,1.15352 -0.51924,1.03462 -1.31875,2.43361 -1.7767,3.10886 -1.23493,1.82094 -4.3654,4.81963 -6.23818,5.97557 -0.90524,0.55875 -1.6459,1.0982 -1.6459,1.19879 0,0.77668 1.30163,0.0951 4.20777,-2.2033 z m -2.79889,0.45468 c 1.04413,-0.67427 2.68443,-2.02473 3.64511,-3.00103 1.78623,-1.81526 4.47102,-5.82413 4.47102,-6.67603 0,-0.92039 -0.51101,-0.45375 -1.44086,1.31578 -1.75627,3.34219 -4.82084,6.54362 -7.8819,8.23389 -0.68913,0.38053 -1.25467,0.8407 -1.25677,1.0226 -0.006,0.5593 0.49093,0.37856 2.4634,-0.89521 z m 0.14668,-1.79332 c 2.64038,-1.93822 5.43784,-5.40578 6.65851,-8.2535 0.6161,-1.43729 0.61503,-1.42724 0.15241,-1.42724 -0.20063,0 -0.52245,0.38695 -0.71517,0.8599 -1.14243,2.80361 -3.96939,6.34234 -6.62252,8.28991 -1.25126,0.91851 -1.60984,1.43352 -0.99809,1.43352 0.16241,0 0.84859,-0.40616 1.52486,-0.90259 z m -0.79614,-1.36269 c 0.88308,-0.66383 2.10201,-1.76515 2.70873,-2.4474 1.21603,-1.3674 2.88185,-3.83589 2.88185,-4.27044 0,-0.65386 -0.57858,-0.17463 -1.46822,1.21612 -1.24641,1.94844 -3.2499,4.05019 -5.02864,5.27525 -0.78343,0.53957 -1.36151,1.08282 -1.28462,1.20723 0.24247,0.39232 0.54367,0.25748 2.1909,-0.98076 z m -2.27551,-0.28687 c 2.79169,-1.74619 6.38303,-5.65133 5.7653,-6.26906 -0.1494,-0.1494 -0.31076,-0.22004 -0.35857,-0.15698 -0.0478,0.0631 -0.52596,0.7258 -1.06255,1.47275 -1.17879,1.64093 -2.63205,2.98403 -4.57054,4.22406 -0.79625,0.50936 -1.37775,1.03932 -1.29223,1.1777 0.21677,0.35075 0.26238,0.33728 1.51859,-0.44847 z m 1.03855,-2.5758 c 1.35227,-1.10155 3.23821,-3.32478 3.88468,-4.57943 0.22513,-0.43693 0.22086,-0.62721 -0.0174,-0.77445 -0.17371,-0.10735 -0.36629,-0.0438 -0.42795,0.14118 -0.27211,0.81631 -2.6918,3.67278 -4.02015,4.74582 -0.80037,0.64653 -1.4949,1.27689 -1.5434,1.4008 -0.22796,0.58228 0.83846,0.11342 2.12419,-0.93392 z m -1.19248,-0.73128 c 1.53464,-1.18396 3.33472,-3.27988 3.99764,-4.65463 0.44711,-0.9272 0.1837,-1.57907 -0.30813,-0.76255 -1.08963,1.80895 -2.7717,3.77726 -4.12817,4.83065 -0.86962,0.67532 -1.5178,1.33032 -1.4404,1.45556 0.22342,0.3615 0.37483,0.29148 1.87906,-0.86903 z m -0.78141,-1.25397 c 1.40725,-1.11237 2.75516,-2.68586 3.2714,-3.81889 0.37873,-0.83123 0.0531,-1.34157 -0.38798,-0.60808 -0.82129,1.36572 -2.43169,3.17345 -3.6121,4.05471 -0.72479,0.54111 -1.3178,1.07748 -1.3178,1.19194 0,0.47577 0.82632,0.14479 2.04648,-0.81968 z m -1.42871,-0.58576 c 0.68071,-0.45088 1.6642,-1.31408 2.18553,-1.91823 1.22814,-1.42321 2.31318,-3.52549 1.93896,-3.75677 -0.3402,-0.21026 -0.31847,-0.23395 -0.98248,1.07084 -0.77847,1.5297 -2.26181,3.15603 -3.76973,4.13313 -0.72214,0.46793 -1.31297,0.94979 -1.31297,1.0708 0,0.43094 0.72103,0.2081 1.94069,-0.59977 z m -2.40852,-0.71303 c 2.06878,-1.01846 3.93351,-2.92336 4.9181,-5.02406 0.62095,-1.32482 0.7091,-1.84184 0.7091,-4.15874 0,-2.3605 -0.0827,-2.82481 -0.76641,-4.30545 -1.0104,-2.18795 -3.48188,-4.53883 -5.632,-5.357166 -2.11466,-0.804849 -5.18984,-0.807559 -7.29432,-0.0064 -4.10862,1.564056 -6.61425,5.228566 -6.61126,9.669046 0.002,2.87264 0.70859,4.68301 2.64392,6.77339 2.36178,2.55101 4.52979,3.44952 8.03634,3.33061 1.93931,-0.0658 2.54024,-0.20427 3.99653,-0.9212 z m -5.24459,-8.62046 c -0.31709,-0.82631 0.004,-1.35609 0.82125,-1.35609 0.70153,0 0.79013,0.089 0.79013,0.79375 0,0.66963 -0.11402,0.80687 -0.72911,0.87762 -0.46529,0.0535 -0.78453,-0.0606 -0.88227,-0.31528 z m -8.38904,-7.25877 c 0.60897,-0.86353 1.73323,-1.98423 2.56563,-2.55752 1.46767,-1.010826 1.81451,-1.461674 1.12449,-1.461674 -1.09596,0 -5.19908,4.118254 -5.19908,5.218244 0,0.66527 0.44175,0.31425 1.50896,-1.19905 z m -0.98973,-0.88489 c 0.91517,-1.34858 2.79152,-2.937682 4.47211,-3.787484 0.60846,-0.307673 0.80438,-0.536103 0.61889,-0.721596 -0.64356,-0.64356 -4.6462,2.403372 -6.12898,4.66556 -0.47235,0.72064 -0.49753,1.2166 -0.061,1.20031 0.10055,-0.004 0.59507,-0.61431 1.09893,-1.35679 z m -1.18806,-0.86171 c 0.68604,-0.93445 2.00698,-2.255385 2.94143,-2.94143 1.61362,-1.184678 2.04701,-1.712414 1.40627,-1.712414 -1.13708,0 -6.06012,4.928584 -6.06012,6.066944 0,0.6338 0.53186,0.19491 1.71242,-1.4131 z m -0.78243,-1.191949 c 1.03331,-1.315235 2.91158,-2.936205 4.62405,-3.990608 0.27044,-0.166512 0.309,-0.328671 0.1225,-0.515163 -0.70975,-0.709753 -6.85478,4.9702 -6.31757,5.83943 0.22384,0.36218 0.26844,0.32431 1.57102,-1.333659 z m -5.11269,-0.617624 c 0.98611,-1.862751 4.77354,-5.833249 6.367,-6.674751 0.88477,-0.467244 1.35265,-1.196603 0.76761,-1.196603 -0.47025,0 -3.93056,2.627448 -5.01976,3.811563 -1.09009,1.185077 -3.75287,5.098064 -3.75295,5.515004 -1e-5,0.10914 0.17158,0.19843 0.38133,0.19843 0.20975,0 0.77529,-0.74414 1.25677,-1.653643 z m 1.27229,0.899353 c 0,-0.12382 0.6019,-1.020217 1.33755,-1.991995 1.3803,-1.823329 3.60805,-3.775908 5.34317,-4.683171 0.9907,-0.518018 1.30923,-1.037208 0.63634,-1.037208 -0.6291,0 -3.63482,2.103904 -4.98272,3.48774 -1.25937,1.292945 -3.12809,3.830579 -3.12809,4.247794 0,0.11108 0.17859,0.20197 0.39687,0.20197 0.21828,0 0.39688,-0.10131 0.39688,-0.22513 z m 2.7564,-1.273459 c 1.25955,-1.529967 3.6545,-3.567149 5.14461,-4.376088 0.83946,-0.455721 1.11042,-1.004494 0.49598,-1.004494 -0.52296,0 -3.1049,1.792947 -4.52514,3.142333 -1.32804,1.261787 -2.81352,3.116027 -2.81352,3.511948 0,0.53503 0.5465,0.12511 1.69807,-1.273699 z m -5.04759,-0.684228 c 1.66954,-2.804102 5.13836,-6.101685 7.87991,-7.490935 0.70974,-0.359654 1.29044,-0.770973 1.29044,-0.914043 0,-0.972827 -3.42672,1.068565 -6.13152,3.652717 -2.73372,2.61178 -4.927,5.876741 -3.94779,5.876741 0.1317,0 0.54073,-0.506016 0.90896,-1.12448 z m -1.43408,-0.157077 c 1.38734,-2.719404 5.54514,-6.877207 8.26454,-8.264544 0.55934,-0.285351 1.01698,-0.694995 1.01698,-0.910318 0,-0.560023 -0.0984,-0.52324 -2.20263,0.823553 -2.52781,1.617884 -5.46142,4.53823 -7.07051,7.038538 -0.720607,1.119734 -1.310198,2.101999 -1.310198,2.182812 0,0.08081 0.176174,0.146932 0.391498,0.146932 0.215323,0 0.62497,-0.457637 0.91032,-1.016973 z m -0.473,-1.826615 c 2.07565,-3.206737 5.74268,-6.49968 9.19068,-8.253108 0.76865,-0.390883 1.06754,-0.676266 0.89206,-0.851745 -0.63182,-0.6318219 -6.22791,3.169841 -8.35615,5.676687 -1.58172,1.863107 -3.349158,4.428074 -3.349158,4.860409 0,0.738966 0.506693,0.291707 1.622568,-1.432243 z m -3.328721,-6.83e-4 c 2.611869,-4.525251 6.245401,-8.058288 10.834281,-10.5346179 2.24966,-1.214001 2.07386,-1.078923 1.85822,-1.427844 -0.2743,-0.44383 -4.09841,1.704083 -6.57716,3.6942329 -1.1781,0.945886 -2.841882,2.553229 -3.697286,3.571875 -1.576859,1.877782 -3.622319,5.06134 -3.622319,5.637786 0,0.663031 0.50694,0.266731 1.204264,-0.941432 z m 2.201054,-0.736123 c 2.154347,-3.276762 5.336967,-6.263103 8.679647,-8.144365 1.41977,-0.7990449 2.08131,-1.5044069 1.41095,-1.5044069 -0.53996,0 -3.80842,2.0675579 -5.58492,3.5328989 -3.13361,2.584747 -7.056266,7.844184 -5.850444,7.844184 0.114657,0 0.719802,-0.77774 1.344767,-1.728311 z"
       style="fill:#ffffff;stroke-width:0.26458332;fill-opacity:1" />
  </g>
</svg>
