<?xml version="1.0" encoding="UTF-8" standalone="no"?>
<svg
   xmlns:dc="http://purl.org/dc/elements/1.1/"
   xmlns:cc="http://creativecommons.org/ns#"
   xmlns:rdf="http://www.w3.org/1999/02/22-rdf-syntax-ns#"
   xmlns:svg="http://www.w3.org/2000/svg"
   xmlns="http://www.w3.org/2000/svg"
   id="svg16"
   version="1.1"
   viewBox="0 0 36 36"
   class="tanuki-logo"
   height="24"
   width="24">
  <metadata
     id="metadata22">
    <rdf:RDF>
      <cc:Work
         rdf:about="">
        <dc:format>image/svg+xml</dc:format>
        <dc:type
           rdf:resource="http://purl.org/dc/dcmitype/StillImage" />
        <dc:title></dc:title>
      </cc:Work>
    </rdf:RDF>
  </metadata>
  <defs
     id="defs20" />
  <path
     id="path2"
     d="M2 14l9.38 9v-9l-4-12.28c-.205-.632-1.176-.632-1.38 0z"
     fill="#e24329"
     class="tanuki-shape tanuki-left-ear" />
  <path
     id="path4"
     d="M34 14l-9.38 9v-9l4-12.28c.205-.632 1.176-.632 1.38 0z"
     fill="#e24329"
     class="tanuki-shape tanuki-right-ear" />
  <path
     id="path6"
     d="M18,34.38 3,14 33,14 Z"
     fill="#e24329"
     class="tanuki-shape tanuki-nose" />
  <path
     id="path8"
     d="M18,34.38 11.38,14 2,14 6,25Z"
     fill="#fc6d26"
     class="tanuki-shape tanuki-left-eye" />
  <path
     id="path10"
     d="M18,34.38 24.62,14 34,14 30,25Z"
     fill="#fc6d26"
     class="tanuki-shape tanuki-right-eye" />
  <path
     id="path12"
     d="M2 14L.1 20.16c-.18.565 0 1.2.5 1.56l17.42 12.66z"
     fill="#fca326"
     class="tanuki-shape tanuki-left-cheek" />
  <path
     id="path14"
     d="M34 14l1.9 6.16c.18.565 0 1.2-.5 1.56L18 34.38z"
     fill="#fca326"
     class="tanuki-shape tanuki-right-cheek" />
</svg>
