<?xml version="1.0" encoding="UTF-8" standalone="no"?>
<svg
   xmlns:dc="http://purl.org/dc/elements/1.1/"
   xmlns:cc="http://creativecommons.org/ns#"
   xmlns:rdf="http://www.w3.org/1999/02/22-rdf-syntax-ns#"
   xmlns:svg="http://www.w3.org/2000/svg"
   xmlns="http://www.w3.org/2000/svg"
   xmlns:xlink="http://www.w3.org/1999/xlink"
   xmlns:sodipodi="http://sodipodi.sourceforge.net/DTD/sodipodi-0.dtd"
   xmlns:inkscape="http://www.inkscape.org/namespaces/inkscape"
   width="16"
   height="16"
   viewbox="0 0 16 16"
   version="1.1"
   id="svg8"
   sodipodi:docname="tasks.svg"
   inkscape:version="0.92.3 (2405546, 2018-03-11)">
  <metadata
     id="metadata14">
    <rdf:RDF>
      <cc:Work
         rdf:about="">
        <dc:format>image/svg+xml</dc:format>
        <dc:type
           rdf:resource="http://purl.org/dc/dcmitype/StillImage" />
      </cc:Work>
    </rdf:RDF>
  </metadata>
  <defs
     id="defs12">
    <linearGradient
       inkscape:collect="always"
       id="linearGradient825">
      <stop
         style="stop-color:#7953ff;stop-opacity:1"
         offset="0"
         id="stop821" />
      <stop
         style="stop-color:#26a2ff;stop-opacity:1"
         offset="1"
         id="stop823" />
    </linearGradient>
    <radialGradient
       inkscape:collect="always"
       xlink:href="#linearGradient825"
       id="radialGradient831"
       cx="8"
       cy="8"
       fx="8"
       fy="8"
       r="8"
       gradientUnits="userSpaceOnUse" />
  </defs>
  <sodipodi:namedview
     pagecolor="#ffffff"
     bordercolor="#666666"
     borderopacity="1"
     objecttolerance="10"
     gridtolerance="10"
     guidetolerance="10"
     inkscape:pageopacity="0"
     inkscape:pageshadow="2"
     inkscape:window-width="1377"
     inkscape:window-height="836"
     id="namedview10"
     showgrid="false"
     inkscape:zoom="14.75"
     inkscape:cx="-1.6610169"
     inkscape:cy="8"
     inkscape:window-x="63"
     inkscape:window-y="27"
     inkscape:window-maximized="1"
     inkscape:current-layer="g6" />
  <g
     fill="none"
     fill-rule="evenodd"
     id="g6">
    <path
       d="M0 1.777C0 .796.796 0 1.777 0h12.446C15.204 0 16 .796 16 1.777v12.446c0 .981-.796 1.777-1.777 1.777H1.777A1.778 1.778 0 0 1 0 14.223V1.777z"
       stroke-linecap="round"
       stroke-linejoin="round"
       fill="#2684FF"
       id="path2"
       style="fill-opacity:1;fill:url(#radialGradient831)" />
    <path
       d="M6.5 10.086l5.793-5.793a1 1 0 0 1 1.414 1.414l-6.5 6.5a1 1 0 0 1-1.414 0l-3.5-3.5a1 1 0 0 1 1.414-1.414L6.5 10.086z"
       fill="#FFF"
       fill-rule="nonzero"
       id="path4" />
  </g>
</svg>
